<svg width="1795" height="1448" viewBox="0 0 1795 1448" fill="none" xmlns="http://www.w3.org/2000/svg">
<g filter="url(#filter0_g_1190_99)">
<path d="M116.903 31.3896C123.315 14.3295 142.343 5.69764 159.403 12.1099L437.414 116.603C454.474 123.015 463.106 142.043 456.694 159.104C450.282 176.164 431.254 184.796 414.193 178.383L167.072 85.5005L74.1896 332.621C67.7774 349.682 48.7493 358.313 31.6892 351.901C14.629 345.489 5.99718 326.461 12.4094 309.401L116.903 31.3896ZM839.624 524.661C857.209 519.873 875.346 530.247 880.134 547.832C884.922 565.417 874.548 583.555 856.963 588.342L839.624 524.661ZM147.793 43L177.845 29.3671C223.006 128.921 296.546 279.703 406.179 392.221C514.66 503.557 655.41 574.816 839.624 524.661L848.293 556.501L856.963 588.342C642.677 646.685 478.426 560.943 358.907 438.28C240.54 316.797 163.08 156.579 117.74 56.6328L147.793 43Z" fill="#5C9FF8"/>
</g>
<path d="M664.873 721.059L675.956 720.273L676.742 731.357L665.658 732.142L664.873 721.059ZM675.956 720.273L687.04 719.488L687.825 730.571L676.742 731.357L675.956 720.273ZM687.04 719.488L698.123 718.703L698.908 729.786L687.825 730.571L687.04 719.488ZM698.123 718.703L709.206 717.917L709.992 729.001L698.908 729.786L698.123 718.703ZM709.206 717.917L720.29 717.132L721.075 728.215L709.992 729.001L709.206 717.917ZM720.29 717.132L731.373 716.347L732.158 727.43L721.075 728.215L720.29 717.132ZM732.158 727.43L743.241 726.645L744.027 737.728L732.944 738.513L732.158 727.43ZM721.075 728.215L732.158 727.43L732.944 738.513L721.86 739.299L721.075 728.215ZM709.992 729.001L721.075 728.215L721.86 739.299L710.777 740.084L709.992 729.001ZM698.908 729.786L709.992 729.001L710.777 740.084L699.694 740.869L698.908 729.786ZM687.825 730.571L698.908 729.786L699.694 740.869L688.61 741.655L687.825 730.571ZM676.742 731.357L687.825 730.571L688.61 741.655L677.527 742.44L676.742 731.357ZM665.658 732.142L676.742 731.357L677.527 742.44L666.444 743.225L665.658 732.142ZM654.575 732.927L665.658 732.142L666.444 743.225L655.36 744.011L654.575 732.927ZM655.36 744.011L666.444 743.225L667.229 754.309L656.146 755.094L655.36 744.011ZM666.444 743.225L677.527 742.44L678.312 753.523L667.229 754.309L666.444 743.225ZM644.277 744.796L655.36 744.011L656.146 755.094L645.062 755.879L644.277 744.796ZM645.062 755.879L656.146 755.094L656.931 766.177L645.848 766.963L645.062 755.879ZM645.848 766.963L656.931 766.177L657.716 777.261L646.633 778.046L645.848 766.963ZM656.931 766.177L668.014 765.392L668.8 776.475L657.716 777.261L656.931 766.177ZM668.014 765.392L679.098 764.607L679.883 775.69L668.8 776.475L668.014 765.392ZM667.229 754.309L678.312 753.523L679.098 764.607L668.014 765.392L667.229 754.309ZM656.146 755.094L667.229 754.309L668.014 765.392L656.931 766.177L656.146 755.094ZM657.716 777.261L668.8 776.475L669.585 787.559L658.502 788.344L657.716 777.261ZM658.502 788.344L669.585 787.559L670.37 798.642L659.287 799.427L658.502 788.344ZM659.287 799.427L670.37 798.642L671.156 809.725L660.072 810.511L659.287 799.427ZM648.204 800.213L659.287 799.427L660.072 810.511L648.989 811.296L648.204 800.213ZM648.989 811.296L660.072 810.511L660.858 821.594L649.774 822.379L648.989 811.296ZM647.418 789.129L658.502 788.344L659.287 799.427L648.204 800.213L647.418 789.129ZM646.633 778.046L657.716 777.261L658.502 788.344L647.418 789.129L646.633 778.046ZM668.8 776.475L679.883 775.69L680.668 786.773L669.585 787.559L668.8 776.475ZM669.585 787.559L680.668 786.773L681.454 797.857L670.37 798.642L669.585 787.559ZM670.37 798.642L681.454 797.857L682.239 808.94L671.156 809.725L670.37 798.642ZM671.156 809.725L682.239 808.94L683.024 820.023L671.941 820.809L671.156 809.725ZM660.072 810.511L671.156 809.725L671.941 820.809L660.858 821.594L660.072 810.511ZM660.858 821.594L671.941 820.809L672.726 831.892L661.643 832.677L660.858 821.594ZM671.941 820.809L683.024 820.023L683.81 831.107L672.726 831.892L671.941 820.809ZM683.024 820.023L694.108 819.238L694.893 830.321L683.81 831.107L683.024 820.023ZM682.239 808.94L693.322 808.155L694.108 819.238L683.024 820.023L682.239 808.94ZM672.726 831.892L683.81 831.107L684.595 842.19L673.512 842.975L672.726 831.892ZM683.81 831.107L694.893 830.321L695.678 841.405L684.595 842.19L683.81 831.107ZM694.893 830.321L705.976 829.536L706.762 840.619L695.678 841.405L694.893 830.321ZM705.976 829.536L717.06 828.751L717.845 839.834L706.762 840.619L705.976 829.536ZM717.06 828.751L728.143 827.965L728.928 839.048L717.845 839.834L717.06 828.751ZM728.143 827.965L739.226 827.18L740.012 838.263L728.928 839.048L728.143 827.965ZM716.274 817.667L727.358 816.882L728.143 827.965L717.06 828.751L716.274 817.667ZM705.191 818.453L716.274 817.667L717.06 828.751L705.976 829.536L705.191 818.453ZM694.108 819.238L705.191 818.453L705.976 829.536L694.893 830.321L694.108 819.238ZM727.358 816.882L738.441 816.096L739.226 827.18L728.143 827.965L727.358 816.882ZM738.441 816.096L749.524 815.311L750.31 826.394L739.226 827.18L738.441 816.096ZM726.572 805.799L737.656 805.013L738.441 816.096L727.358 816.882L726.572 805.799ZM715.489 806.584L726.572 805.799L727.358 816.882L716.274 817.667L715.489 806.584ZM737.656 805.013L748.739 804.228L749.524 815.311L738.441 816.096L737.656 805.013ZM748.739 804.228L759.822 803.442L760.608 814.526L749.524 815.311L748.739 804.228ZM747.954 793.144L759.037 792.359L759.822 803.442L748.739 804.228L747.954 793.144ZM736.87 793.93L747.954 793.144L748.739 804.228L737.656 805.013L736.87 793.93ZM725.787 794.715L736.87 793.93L737.656 805.013L726.572 805.799L725.787 794.715ZM733.729 749.597L744.812 748.811L745.598 759.895L734.514 760.68L733.729 749.597ZM744.812 748.811L755.896 748.026L756.681 759.109L745.598 759.895L744.812 748.811ZM744.027 737.728L755.11 736.943L755.896 748.026L744.812 748.811L744.027 737.728ZM722.646 750.382L733.729 749.597L734.514 760.68L723.431 761.465L722.646 750.382ZM721.86 739.299L732.944 738.513L733.729 749.597L722.646 750.382L721.86 739.299ZM710.777 740.084L721.86 739.299L722.646 750.382L711.562 751.167L710.777 740.084ZM732.944 738.513L744.027 737.728L744.812 748.811L733.729 749.597L732.944 738.513ZM677.527 742.44L688.61 741.655L689.396 752.738L678.312 753.523L677.527 742.44ZM688.61 741.655L699.694 740.869L700.479 751.953L689.396 752.738L688.61 741.655ZM699.694 740.869L710.777 740.084L711.562 751.167L700.479 751.953L699.694 740.869ZM693.322 808.155L704.406 807.369L705.191 818.453L694.108 819.238L693.322 808.155ZM704.406 807.369L715.489 806.584L716.274 817.667L705.191 818.453L704.406 807.369ZM751.585 670.359L762.668 669.573L763.453 680.656L752.37 681.442L751.585 670.359ZM752.37 681.442L763.453 680.656L764.239 691.74L753.155 692.525L752.37 681.442ZM753.155 692.525L764.239 691.74L765.024 702.823L753.941 703.608L753.155 692.525ZM753.941 703.608L765.024 702.823L765.809 713.906L754.726 714.692L753.941 703.608ZM754.726 714.692L765.809 713.906L766.595 724.99L755.512 725.775L754.726 714.692ZM755.512 725.775L766.595 724.99L767.38 736.073L756.297 736.858L755.512 725.775ZM756.297 736.858L767.38 736.073L768.166 747.156L757.082 747.942L756.297 736.858ZM757.082 747.942L768.166 747.156L768.951 758.24L757.868 759.025L757.082 747.942ZM757.868 759.025L768.951 758.24L769.736 769.323L758.653 770.108L757.868 759.025ZM758.653 770.108L769.736 769.323L770.522 780.406L759.438 781.192L758.653 770.108ZM759.438 781.192L770.522 780.406L771.307 791.49L760.224 792.275L759.438 781.192ZM760.224 792.275L771.307 791.49L772.092 802.573L761.009 803.358L760.224 792.275ZM761.009 803.358L772.092 802.573L772.878 813.656L761.794 814.442L761.009 803.358ZM761.794 814.442L772.878 813.656L773.663 824.74L762.58 825.525L761.794 814.442ZM762.58 825.525L773.663 824.74L774.448 835.823L763.365 836.608L762.58 825.525ZM773.663 824.74L784.746 823.954L785.532 835.038L774.448 835.823L773.663 824.74ZM784.746 823.954L795.83 823.169L796.615 834.252L785.532 835.038L784.746 823.954ZM783.961 812.871L795.044 812.086L795.83 823.169L784.746 823.954L783.961 812.871ZM783.176 801.788L794.259 801.002L795.044 812.086L783.961 812.871L783.176 801.788ZM782.39 790.704L793.474 789.919L794.259 801.002L783.176 801.788L782.39 790.704ZM781.605 779.621L792.688 778.836L793.474 789.919L782.39 790.704L781.605 779.621ZM780.82 768.538L791.903 767.752L792.688 778.836L781.605 779.621L780.82 768.538ZM780.034 757.454L791.118 756.669L791.903 767.752L780.82 768.538L780.034 757.454ZM779.249 746.371L790.332 745.586L791.118 756.669L780.034 757.454L779.249 746.371ZM778.464 735.288L789.547 734.502L790.332 745.586L779.249 746.371L778.464 735.288ZM773.751 668.788L784.835 668.002L785.62 679.086L774.537 679.871L773.751 668.788ZM762.668 669.573L773.751 668.788L774.537 679.871L763.453 680.656L762.668 669.573ZM763.453 680.656L774.537 679.871L775.322 690.954L764.239 691.74L763.453 680.656ZM774.537 679.871L785.62 679.086L786.405 690.169L775.322 690.954L774.537 679.871ZM775.322 690.954L786.405 690.169L787.191 701.252L776.107 702.038L775.322 690.954ZM776.107 702.038L787.191 701.252L787.976 712.336L776.893 713.121L776.107 702.038ZM776.893 713.121L787.976 712.336L788.761 723.419L777.678 724.204L776.893 713.121ZM777.678 724.204L788.761 723.419L789.547 734.502L778.464 735.288L777.678 724.204ZM765.809 713.906L776.893 713.121L777.678 724.204L766.595 724.99L765.809 713.906ZM765.024 702.823L776.107 702.038L776.893 713.121L765.809 713.906L765.024 702.823ZM764.239 691.74L775.322 690.954L776.107 702.038L765.024 702.823L764.239 691.74ZM766.595 724.99L777.678 724.204L778.464 735.288L767.38 736.073L766.595 724.99ZM767.38 736.073L778.464 735.288L779.249 746.371L768.166 747.156L767.38 736.073ZM772.878 813.656L783.961 812.871L784.746 823.954L773.663 824.74L772.878 813.656ZM772.092 802.573L783.176 801.788L783.961 812.871L772.878 813.656L772.092 802.573ZM771.307 791.49L782.39 790.704L783.176 801.788L772.092 802.573L771.307 791.49ZM770.522 780.406L781.605 779.621L782.39 790.704L771.307 791.49L770.522 780.406ZM769.736 769.323L780.82 768.538L781.605 779.621L770.522 780.406L769.736 769.323ZM768.951 758.24L780.034 757.454L780.82 768.538L769.736 769.323L768.951 758.24ZM768.166 747.156L779.249 746.371L780.034 757.454L768.951 758.24L768.166 747.156ZM786.162 667.908L797.245 667.123L798.031 678.206L786.947 678.992L786.162 667.908ZM786.947 678.992L798.031 678.206L798.816 689.29L787.733 690.075L786.947 678.992ZM787.733 690.075L798.816 689.29L799.601 700.373L788.518 701.158L787.733 690.075ZM790.089 723.325L801.172 722.54L801.958 733.623L790.874 734.408L790.089 723.325ZM790.874 734.408L801.958 733.623L802.743 744.706L791.66 745.492L790.874 734.408ZM791.66 745.492L802.743 744.706L803.528 755.79L792.445 756.575L791.66 745.492ZM792.445 756.575L803.528 755.79L804.314 766.873L793.23 767.658L792.445 756.575ZM793.23 767.658L804.314 766.873L805.099 777.956L794.016 778.742L793.23 767.658ZM794.016 778.742L805.099 777.956L805.884 789.04L794.801 789.825L794.016 778.742ZM794.801 789.825L805.884 789.04L806.67 800.123L795.586 800.908L794.801 789.825ZM795.586 800.908L806.67 800.123L807.455 811.206L796.372 811.992L795.586 800.908ZM796.372 811.992L807.455 811.206L808.24 822.29L797.157 823.075L796.372 811.992ZM797.157 823.075L808.24 822.29L809.026 833.373L797.942 834.158L797.157 823.075ZM808.24 822.29L819.324 821.504L820.109 832.588L809.026 833.373L808.24 822.29ZM819.324 821.504L830.407 820.719L831.192 831.802L820.109 832.588L819.324 821.504ZM818.538 810.421L829.622 809.636L830.407 820.719L819.324 821.504L818.538 810.421ZM817.753 799.338L828.836 798.552L829.622 809.636L818.538 810.421L817.753 799.338ZM816.968 788.254L828.051 787.469L828.836 798.552L817.753 799.338L816.968 788.254ZM816.182 777.171L827.266 776.386L828.051 787.469L816.968 788.254L816.182 777.171ZM815.397 766.088L826.48 765.302L827.266 776.386L816.182 777.171L815.397 766.088ZM814.612 755.004L825.695 754.219L826.48 765.302L815.397 766.088L814.612 755.004ZM813.826 743.921L824.91 743.136L825.695 754.219L814.612 755.004L813.826 743.921ZM813.041 732.838L824.124 732.052L824.91 743.136L813.826 743.921L813.041 732.838ZM808.329 666.338L819.412 665.552L820.197 676.636L809.114 677.421L808.329 666.338ZM797.245 667.123L808.329 666.338L809.114 677.421L798.031 678.206L797.245 667.123ZM798.031 678.206L809.114 677.421L809.899 688.504L798.816 689.29L798.031 678.206ZM809.114 677.421L820.197 676.636L820.983 687.719L809.899 688.504L809.114 677.421ZM809.899 688.504L820.983 687.719L821.768 698.802L810.685 699.588L809.899 688.504ZM812.256 721.754L823.339 720.969L824.124 732.052L813.041 732.838L812.256 721.754ZM798.816 689.29L809.899 688.504L810.685 699.588L799.601 700.373L798.816 689.29ZM801.172 722.54L812.256 721.754L813.041 732.838L801.958 733.623L801.172 722.54ZM801.958 733.623L813.041 732.838L813.826 743.921L802.743 744.706L801.958 733.623ZM807.455 811.206L818.538 810.421L819.324 821.504L808.24 822.29L807.455 811.206ZM806.67 800.123L817.753 799.338L818.538 810.421L807.455 811.206L806.67 800.123ZM805.884 789.04L816.968 788.254L817.753 799.338L806.67 800.123L805.884 789.04ZM805.099 777.956L816.182 777.171L816.968 788.254L805.884 789.04L805.099 777.956ZM804.314 766.873L815.397 766.088L816.182 777.171L805.099 777.956L804.314 766.873ZM803.528 755.79L814.612 755.004L815.397 766.088L804.314 766.873L803.528 755.79ZM802.743 744.706L813.826 743.921L814.612 755.004L803.528 755.79L802.743 744.706ZM846.048 708.221L857.131 707.436L857.916 718.519L846.833 719.304L846.048 708.221ZM857.131 707.436L868.214 706.65L869 717.733L857.916 718.519L857.131 707.436ZM868.214 706.65L879.297 705.865L880.083 716.948L869 717.733L868.214 706.65ZM879.297 705.865L890.381 705.079L891.166 716.163L880.083 716.948L879.297 705.865ZM890.381 705.079L901.464 704.294L902.249 715.377L891.166 716.163L890.381 705.079ZM901.464 704.294L912.547 703.509L913.333 714.592L902.249 715.377L901.464 704.294ZM913.333 714.592L924.416 713.807L925.201 724.89L914.118 725.675L913.333 714.592ZM902.249 715.377L913.333 714.592L914.118 725.675L903.035 726.461L902.249 715.377ZM891.166 716.163L902.249 715.377L903.035 726.461L891.952 727.246L891.166 716.163ZM880.083 716.948L891.166 716.163L891.952 727.246L880.868 728.031L880.083 716.948ZM869 717.733L880.083 716.948L880.868 728.031L869.785 728.817L869 717.733ZM857.916 718.519L869 717.733L869.785 728.817L858.702 729.602L857.916 718.519ZM846.833 719.304L857.916 718.519L858.702 729.602L847.618 730.388L846.833 719.304ZM835.75 720.09L846.833 719.304L847.618 730.388L836.535 731.173L835.75 720.09ZM836.535 731.173L847.618 730.388L848.404 741.471L837.32 742.256L836.535 731.173ZM847.618 730.388L858.702 729.602L859.487 740.685L848.404 741.471L847.618 730.388ZM825.452 731.958L836.535 731.173L837.32 742.256L826.237 743.042L825.452 731.958ZM826.237 743.042L837.32 742.256L838.106 753.34L827.022 754.125L826.237 743.042ZM827.022 754.125L838.106 753.34L838.891 764.423L827.808 765.208L827.022 754.125ZM838.106 753.34L849.189 752.554L849.974 763.637L838.891 764.423L838.106 753.34ZM849.189 752.554L860.272 751.769L861.058 762.852L849.974 763.637L849.189 752.554ZM848.404 741.471L859.487 740.685L860.272 751.769L849.189 752.554L848.404 741.471ZM837.32 742.256L848.404 741.471L849.189 752.554L838.106 753.34L837.32 742.256ZM838.891 764.423L849.974 763.637L850.76 774.721L839.676 775.506L838.891 764.423ZM839.676 775.506L850.76 774.721L851.545 785.804L840.462 786.589L839.676 775.506ZM840.462 786.589L851.545 785.804L852.33 796.887L841.247 797.673L840.462 786.589ZM829.378 787.375L840.462 786.589L841.247 797.673L830.164 798.458L829.378 787.375ZM830.164 798.458L841.247 797.673L842.032 808.756L830.949 809.541L830.164 798.458ZM828.593 776.292L839.676 775.506L840.462 786.589L829.378 787.375L828.593 776.292ZM827.808 765.208L838.891 764.423L839.676 775.506L828.593 776.292L827.808 765.208ZM849.974 763.637L861.058 762.852L861.843 773.935L850.76 774.721L849.974 763.637ZM850.76 774.721L861.843 773.935L862.628 785.019L851.545 785.804L850.76 774.721ZM851.545 785.804L862.628 785.019L863.414 796.102L852.33 796.887L851.545 785.804ZM852.33 796.887L863.414 796.102L864.199 807.185L853.116 807.971L852.33 796.887ZM841.247 797.673L852.33 796.887L853.116 807.971L842.032 808.756L841.247 797.673ZM842.032 808.756L853.116 807.971L853.901 819.054L842.818 819.839L842.032 808.756ZM853.116 807.971L864.199 807.185L864.984 818.269L853.901 819.054L853.116 807.971ZM864.199 807.185L875.282 806.4L876.068 817.483L864.984 818.269L864.199 807.185ZM863.414 796.102L874.497 795.317L875.282 806.4L864.199 807.185L863.414 796.102ZM853.901 819.054L864.984 818.269L865.77 829.352L854.686 830.137L853.901 819.054ZM864.984 818.269L876.068 817.483L876.853 828.567L865.77 829.352L864.984 818.269ZM876.068 817.483L887.151 816.698L887.936 827.781L876.853 828.567L876.068 817.483ZM887.151 816.698L898.234 815.913L899.02 826.996L887.936 827.781L887.151 816.698ZM898.234 815.913L909.318 815.127L910.103 826.211L899.02 826.996L898.234 815.913ZM909.318 815.127L920.401 814.342L921.186 825.425L910.103 826.211L909.318 815.127ZM897.449 804.829L908.532 804.044L909.318 815.127L898.234 815.913L897.449 804.829ZM886.366 805.615L897.449 804.829L898.234 815.913L887.151 816.698L886.366 805.615ZM875.282 806.4L886.366 805.615L887.151 816.698L876.068 817.483L875.282 806.4ZM908.532 804.044L919.616 803.259L920.401 814.342L909.318 815.127L908.532 804.044ZM919.616 803.259L930.699 802.473L931.484 813.557L920.401 814.342L919.616 803.259ZM907.747 792.961L918.83 792.175L919.616 803.259L908.532 804.044L907.747 792.961ZM896.664 793.746L907.747 792.961L908.532 804.044L897.449 804.829L896.664 793.746ZM918.83 792.175L929.914 791.39L930.699 802.473L919.616 803.259L918.83 792.175ZM929.914 791.39L940.997 790.605L941.782 801.688L930.699 802.473L929.914 791.39ZM929.128 780.307L940.212 779.521L940.997 790.605L929.914 791.39L929.128 780.307ZM918.045 781.092L929.128 780.307L929.914 791.39L918.83 792.175L918.045 781.092ZM906.962 781.877L918.045 781.092L918.83 792.175L907.747 792.961L906.962 781.877ZM914.904 736.759L925.987 735.973L926.772 747.057L915.689 747.842L914.904 736.759ZM925.987 735.973L937.07 735.188L937.856 746.271L926.772 747.057L925.987 735.973ZM925.201 724.89L936.285 724.105L937.07 735.188L925.987 735.973L925.201 724.89ZM903.82 737.544L914.904 736.759L915.689 747.842L904.606 748.627L903.82 737.544ZM903.035 726.461L914.118 725.675L914.904 736.759L903.82 737.544L903.035 726.461ZM891.952 727.246L903.035 726.461L903.82 737.544L892.737 738.329L891.952 727.246ZM914.118 725.675L925.201 724.89L925.987 735.973L914.904 736.759L914.118 725.675ZM858.702 729.602L869.785 728.817L870.57 739.9L859.487 740.685L858.702 729.602ZM869.785 728.817L880.868 728.031L881.654 739.115L870.57 739.9L869.785 728.817ZM880.868 728.031L891.952 727.246L892.737 738.329L881.654 739.115L880.868 728.031ZM874.497 795.317L885.58 794.531L886.366 805.615L875.282 806.4L874.497 795.317ZM885.58 794.531L896.664 793.746L897.449 804.829L886.366 805.615L885.58 794.531ZM932.759 657.521L943.843 656.735L944.628 667.819L933.545 668.604L932.759 657.521ZM943.843 656.735L954.926 655.95L955.711 667.033L944.628 667.819L943.843 656.735ZM955.711 667.033L966.795 666.248L967.58 677.331L956.497 678.117L955.711 667.033ZM956.497 678.117L967.58 677.331L968.365 688.415L957.282 689.2L956.497 678.117ZM957.282 689.2L968.365 688.415L969.151 699.498L958.067 700.283L957.282 689.2ZM958.067 700.283L969.151 699.498L969.936 710.581L958.853 711.367L958.067 700.283ZM958.853 711.367L969.936 710.581L970.721 721.665L959.638 722.45L958.853 711.367ZM959.638 722.45L970.721 721.665L971.507 732.748L960.423 733.533L959.638 722.45ZM949.34 734.319L960.423 733.533L961.209 744.617L950.126 745.402L949.34 734.319ZM950.126 745.402L961.209 744.617L961.994 755.7L950.911 756.485L950.126 745.402ZM948.555 723.235L959.638 722.45L960.423 733.533L949.34 734.319L948.555 723.235ZM947.769 712.152L958.853 711.367L959.638 722.45L948.555 723.235L947.769 712.152ZM954.926 655.95L966.009 655.165L966.795 666.248L955.711 667.033L954.926 655.95ZM944.628 667.819L955.711 667.033L956.497 678.117L945.413 678.902L944.628 667.819ZM945.413 678.902L956.497 678.117L957.282 689.2L946.199 689.985L945.413 678.902ZM934.33 679.687L945.413 678.902L946.199 689.985L935.115 690.771L934.33 679.687ZM935.115 690.771L946.199 689.985L946.984 701.069L935.901 701.854L935.115 690.771ZM935.901 701.854L946.984 701.069L947.769 712.152L936.686 712.937L935.901 701.854ZM946.984 701.069L958.067 700.283L958.853 711.367L947.769 712.152L946.984 701.069ZM946.199 689.985L957.282 689.2L958.067 700.283L946.984 701.069L946.199 689.985ZM933.545 668.604L944.628 667.819L945.413 678.902L934.33 679.687L933.545 668.604ZM936.686 712.937L947.769 712.152L948.555 723.235L937.471 724.021L936.686 712.937ZM937.471 724.021L948.555 723.235L949.34 734.319L938.257 735.104L937.471 724.021ZM938.257 735.104L949.34 734.319L950.126 745.402L939.042 746.187L938.257 735.104ZM939.042 746.187L950.126 745.402L950.911 756.485L939.828 757.271L939.042 746.187ZM939.828 757.271L950.911 756.485L951.696 767.569L940.613 768.354L939.828 757.271ZM940.613 768.354L951.696 767.569L952.482 778.652L941.398 779.437L940.613 768.354ZM941.398 779.437L952.482 778.652L953.267 789.735L942.184 790.521L941.398 779.437ZM942.184 790.521L953.267 789.735L954.052 800.818L942.969 801.604L942.184 790.521ZM942.969 801.604L954.052 800.818L954.838 811.902L943.754 812.687L942.969 801.604ZM943.754 812.687L954.838 811.902L955.623 822.985L944.54 823.77L943.754 812.687ZM954.838 811.902L965.921 811.116L966.706 822.2L955.623 822.985L954.838 811.902ZM965.921 811.116L977.004 810.331L977.79 821.414L966.706 822.2L965.921 811.116ZM965.136 800.033L976.219 799.248L977.004 810.331L965.921 811.116L965.136 800.033ZM964.35 788.95L975.434 788.164L976.219 799.248L965.136 800.033L964.35 788.95ZM963.565 777.866L974.648 777.081L975.434 788.164L964.35 788.95L963.565 777.866ZM962.78 766.783L973.863 765.998L974.648 777.081L963.565 777.866L962.78 766.783ZM961.994 755.7L973.078 754.914L973.863 765.998L962.78 766.783L961.994 755.7ZM961.209 744.617L972.292 743.831L973.078 754.914L961.994 755.7L961.209 744.617ZM960.423 733.533L971.507 732.748L972.292 743.831L961.209 744.617L960.423 733.533ZM950.911 756.485L961.994 755.7L962.78 766.783L951.696 767.569L950.911 756.485ZM951.696 767.569L962.78 766.783L963.565 777.866L952.482 778.652L951.696 767.569ZM954.052 800.818L965.136 800.033L965.921 811.116L954.838 811.902L954.052 800.818ZM953.267 789.735L964.35 788.95L965.136 800.033L954.052 800.818L953.267 789.735ZM952.482 778.652L963.565 777.866L964.35 788.95L953.267 789.735L952.482 778.652ZM973.078 754.914L984.161 754.129L984.946 765.212L973.863 765.998L973.078 754.914ZM984.161 754.129L995.244 753.344L996.03 764.427L984.946 765.212L984.161 754.129ZM983.375 743.046L994.459 742.26L995.244 753.344L984.161 754.129L983.375 743.046ZM972.292 743.831L983.375 743.046L984.161 754.129L973.078 754.914L972.292 743.831ZM973.863 765.998L984.946 765.212L985.732 776.296L974.648 777.081L973.863 765.998ZM984.946 765.212L996.03 764.427L996.815 775.51L985.732 776.296L984.946 765.212ZM995.244 753.344L1006.33 752.558L1007.11 763.642L996.03 764.427L995.244 753.344ZM994.459 742.26L1005.54 741.475L1006.33 752.558L995.244 753.344L994.459 742.26ZM982.59 731.963L993.673 731.177L994.459 742.26L983.375 743.046L982.59 731.963ZM993.673 731.177L1004.76 730.392L1005.54 741.475L994.459 742.26L993.673 731.177ZM1005.54 741.475L1016.63 740.69L1017.41 751.773L1006.33 752.558L1005.54 741.475ZM1004.76 730.392L1015.84 729.606L1016.63 740.69L1005.54 741.475L1004.76 730.392ZM1003.97 719.308L1015.05 718.523L1015.84 729.606L1004.76 730.392L1003.97 719.308ZM1015.05 718.523L1026.14 717.738L1026.92 728.821L1015.84 729.606L1015.05 718.523ZM1014.27 707.44L1025.35 706.654L1026.14 717.738L1015.05 718.523L1014.27 707.44ZM1003.19 708.225L1014.27 707.44L1015.05 718.523L1003.97 719.308L1003.19 708.225ZM1002.4 697.142L1013.48 696.356L1014.27 707.44L1003.19 708.225L1002.4 697.142ZM991.317 697.927L1002.4 697.142L1003.19 708.225L992.103 709.011L991.317 697.927ZM992.103 709.011L1003.19 708.225L1003.97 719.308L992.888 720.094L992.103 709.011ZM992.888 720.094L1003.97 719.308L1004.76 730.392L993.673 731.177L992.888 720.094ZM1013.48 696.356L1024.57 695.571L1025.35 706.654L1014.27 707.44L1013.48 696.356ZM1015.84 729.606L1026.92 728.821L1027.71 739.904L1016.63 740.69L1015.84 729.606ZM1007.11 763.642L1018.2 762.856L1018.98 773.94L1007.9 774.725L1007.11 763.642ZM996.03 764.427L1007.11 763.642L1007.9 774.725L996.815 775.51L996.03 764.427ZM985.732 776.296L996.815 775.51L997.6 786.594L986.517 787.379L985.732 776.296ZM996.815 775.51L1007.9 774.725L1008.68 785.808L997.6 786.594L996.815 775.51ZM1007.9 774.725L1018.98 773.94L1019.77 785.023L1008.68 785.808L1007.9 774.725ZM1018.98 773.94L1030.06 773.154L1030.85 784.238L1019.77 785.023L1018.98 773.94ZM1019.77 785.023L1030.85 784.238L1031.64 795.321L1020.55 796.106L1019.77 785.023ZM1020.55 796.106L1031.64 795.321L1032.42 806.404L1021.34 807.19L1020.55 796.106ZM1021.34 807.19L1032.42 806.404L1033.21 817.488L1022.12 818.273L1021.34 807.19ZM1010.25 807.975L1021.34 807.19L1022.12 818.273L1011.04 819.058L1010.25 807.975ZM1009.47 796.892L1020.55 796.106L1021.34 807.19L1010.25 807.975L1009.47 796.892ZM1008.68 785.808L1019.77 785.023L1020.55 796.106L1009.47 796.892L1008.68 785.808ZM998.386 797.677L1009.47 796.892L1010.25 807.975L999.171 808.76L998.386 797.677ZM999.171 808.76L1010.25 807.975L1011.04 819.058L999.956 819.844L999.171 808.76ZM997.6 786.594L1008.68 785.808L1009.47 796.892L998.386 797.677L997.6 786.594ZM1068.25 647.92L1079.33 647.134L1080.12 658.218L1069.04 659.003L1068.25 647.92ZM1079.33 647.134L1090.42 646.349L1091.2 657.432L1080.12 658.218L1079.33 647.134ZM1090.42 646.349L1101.5 645.564L1102.29 656.647L1091.2 657.432L1090.42 646.349ZM1091.2 657.432L1102.29 656.647L1103.07 667.73L1091.99 668.516L1091.2 657.432ZM1091.99 668.516L1103.07 667.73L1103.86 678.814L1092.77 679.599L1091.99 668.516ZM1092.77 679.599L1103.86 678.814L1104.64 689.897L1093.56 690.682L1092.77 679.599ZM1093.56 690.682L1104.64 689.897L1105.43 700.98L1094.35 701.766L1093.56 690.682ZM1083.26 702.551L1094.35 701.766L1095.13 712.849L1084.05 713.634L1083.26 702.551ZM1084.05 713.634L1095.13 712.849L1095.92 723.932L1084.83 724.718L1084.05 713.634ZM1072.18 703.336L1083.26 702.551L1084.05 713.634L1072.96 714.42L1072.18 703.336ZM1071.39 692.253L1082.48 691.468L1083.26 702.551L1072.18 703.336L1071.39 692.253ZM1070.61 681.17L1081.69 680.384L1082.48 691.468L1071.39 692.253L1070.61 681.17ZM1069.82 670.086L1080.91 669.301L1081.69 680.384L1070.61 681.17L1069.82 670.086ZM1069.04 659.003L1080.12 658.218L1080.91 669.301L1069.82 670.086L1069.04 659.003ZM1080.12 658.218L1091.2 657.432L1091.99 668.516L1080.91 669.301L1080.12 658.218ZM1080.91 669.301L1091.99 668.516L1092.77 679.599L1081.69 680.384L1080.91 669.301ZM1081.69 680.384L1092.77 679.599L1093.56 690.682L1082.48 691.468L1081.69 680.384ZM1082.48 691.468L1093.56 690.682L1094.35 701.766L1083.26 702.551L1082.48 691.468ZM1084.83 724.718L1095.92 723.932L1096.7 735.016L1085.62 735.801L1084.83 724.718ZM1073.75 725.503L1084.83 724.718L1085.62 735.801L1074.53 736.586L1073.75 725.503ZM1074.53 736.586L1085.62 735.801L1086.4 746.884L1075.32 747.67L1074.53 736.586ZM1072.96 714.42L1084.05 713.634L1084.83 724.718L1073.75 725.503L1072.96 714.42ZM1075.32 747.67L1086.4 746.884L1087.19 757.968L1076.11 758.753L1075.32 747.67ZM1076.11 758.753L1087.19 757.968L1087.97 769.051L1076.89 769.836L1076.11 758.753ZM1076.89 769.836L1087.97 769.051L1088.76 780.134L1077.68 780.92L1076.89 769.836ZM1077.68 780.92L1088.76 780.134L1089.54 791.218L1078.46 792.003L1077.68 780.92ZM1078.46 792.003L1089.54 791.218L1090.33 802.301L1079.25 803.086L1078.46 792.003ZM1089.54 791.218L1100.63 790.432L1101.41 801.516L1090.33 802.301L1089.54 791.218ZM1100.63 790.432L1111.71 789.647L1112.5 800.73L1101.41 801.516L1100.63 790.432ZM1101.41 801.516L1112.5 800.73L1113.28 811.814L1102.2 812.599L1101.41 801.516ZM1090.33 802.301L1101.41 801.516L1102.2 812.599L1091.12 813.384L1090.33 802.301ZM1079.25 803.086L1090.33 802.301L1091.12 813.384L1080.03 814.17L1079.25 803.086ZM1099.84 779.349L1110.93 778.564L1111.71 789.647L1100.63 790.432L1099.84 779.349ZM1099.06 768.266L1110.14 767.48L1110.93 778.564L1099.84 779.349L1099.06 768.266ZM1098.27 757.182L1109.36 756.397L1110.14 767.48L1099.06 768.266L1098.27 757.182ZM1097.49 746.099L1108.57 745.314L1109.36 756.397L1098.27 757.182L1097.49 746.099ZM1096.7 735.016L1107.78 734.23L1108.57 745.314L1097.49 746.099L1096.7 735.016ZM1095.92 723.932L1107 723.147L1107.78 734.23L1096.7 735.016L1095.92 723.932ZM1095.13 712.849L1106.21 712.064L1107 723.147L1095.92 723.932L1095.13 712.849ZM1094.35 701.766L1105.43 700.98L1106.21 712.064L1095.13 712.849L1094.35 701.766ZM1085.62 735.801L1096.7 735.016L1097.49 746.099L1086.4 746.884L1085.62 735.801ZM1087.19 757.968L1098.27 757.182L1099.06 768.266L1087.97 769.051L1087.19 757.968ZM1087.97 769.051L1099.06 768.266L1099.84 779.349L1088.76 780.134L1087.97 769.051ZM1088.76 780.134L1099.84 779.349L1100.63 790.432L1089.54 791.218L1088.76 780.134ZM1086.4 746.884L1097.49 746.099L1098.27 757.182L1087.19 757.968L1086.4 746.884ZM1156.83 797.589L1167.91 796.803L1168.7 807.887L1157.62 808.672L1156.83 797.589ZM1167.91 796.803L1179 796.018L1179.78 807.101L1168.7 807.887L1167.91 796.803ZM1167.13 785.72L1178.21 784.935L1179 796.018L1167.91 796.803L1167.13 785.72ZM1166.34 774.637L1177.43 773.851L1178.21 784.935L1167.13 785.72L1166.34 774.637ZM1165.56 763.554L1176.64 762.768L1177.43 773.851L1166.34 774.637L1165.56 763.554ZM1176.64 762.768L1187.72 761.983L1188.51 773.066L1177.43 773.851L1176.64 762.768ZM1175.86 751.685L1186.94 750.899L1187.72 761.983L1176.64 762.768L1175.86 751.685ZM1177.43 773.851L1188.51 773.066L1189.29 784.149L1178.21 784.935L1177.43 773.851ZM1178.21 784.935L1189.29 784.149L1190.08 795.233L1179 796.018L1178.21 784.935ZM1179 796.018L1190.08 795.233L1190.87 806.316L1179.78 807.101L1179 796.018ZM1156.04 786.506L1167.13 785.72L1167.91 796.803L1156.83 797.589L1156.04 786.506ZM1155.26 775.422L1166.34 774.637L1167.13 785.72L1156.04 786.506L1155.26 775.422ZM1154.47 764.339L1165.56 763.554L1166.34 774.637L1155.26 775.422L1154.47 764.339ZM1153.69 753.256L1164.77 752.47L1165.56 763.554L1154.47 764.339L1153.69 753.256ZM1152.9 742.172L1163.99 741.387L1164.77 752.47L1153.69 753.256L1152.9 742.172ZM1152.12 731.089L1163.2 730.304L1163.99 741.387L1152.9 742.172L1152.12 731.089ZM1151.33 720.006L1162.42 719.22L1163.2 730.304L1152.12 731.089L1151.33 720.006ZM1150.55 708.922L1161.63 708.137L1162.42 719.22L1151.33 720.006L1150.55 708.922ZM1149.76 697.839L1160.85 697.054L1161.63 708.137L1150.55 708.922L1149.76 697.839ZM1138.68 698.624L1149.76 697.839L1150.55 708.922L1139.46 709.708L1138.68 698.624ZM1127.6 699.41L1138.68 698.624L1139.46 709.708L1128.38 710.493L1127.6 699.41ZM1161.63 708.137L1172.71 707.352L1173.5 718.435L1162.42 719.22L1161.63 708.137ZM1162.42 719.22L1173.5 718.435L1174.28 729.518L1163.2 730.304L1162.42 719.22ZM1163.2 730.304L1174.28 729.518L1175.07 740.602L1163.99 741.387L1163.2 730.304ZM1163.99 741.387L1175.07 740.602L1175.86 751.685L1164.77 752.47L1163.99 741.387ZM1164.77 752.47L1175.86 751.685L1176.64 762.768L1165.56 763.554L1164.77 752.47ZM1175.07 740.602L1186.15 739.816L1186.94 750.899L1175.86 751.685L1175.07 740.602ZM1174.28 729.518L1185.37 728.733L1186.15 739.816L1175.07 740.602L1174.28 729.518ZM1173.5 718.435L1184.58 717.65L1185.37 728.733L1174.28 729.518L1173.5 718.435ZM1172.71 707.352L1183.8 706.566L1184.58 717.65L1173.5 718.435L1172.71 707.352ZM1160.85 697.054L1171.93 696.268L1172.71 707.352L1161.63 708.137L1160.85 697.054ZM1148.98 686.756L1160.06 685.97L1160.85 697.054L1149.76 697.839L1148.98 686.756ZM1137.89 687.541L1148.98 686.756L1149.76 697.839L1138.68 698.624L1137.89 687.541ZM1126.81 688.326L1137.89 687.541L1138.68 698.624L1127.6 699.41L1126.81 688.326ZM1115.73 689.112L1126.81 688.326L1127.6 699.41L1116.51 700.195L1115.73 689.112ZM1116.51 700.195L1127.6 699.41L1128.38 710.493L1117.3 711.278L1116.51 700.195ZM1105.43 700.98L1116.51 700.195L1117.3 711.278L1106.21 712.064L1105.43 700.98ZM1106.21 712.064L1117.3 711.278L1118.08 722.362L1107 723.147L1106.21 712.064ZM1117.3 711.278L1128.38 710.493L1129.17 721.576L1118.08 722.362L1117.3 711.278ZM1128.38 710.493L1139.46 709.708L1140.25 720.791L1129.17 721.576L1128.38 710.493ZM1139.46 709.708L1150.55 708.922L1151.33 720.006L1140.25 720.791L1139.46 709.708ZM1107 723.147L1118.08 722.362L1118.87 733.445L1107.78 734.23L1107 723.147ZM1205.58 682.745L1216.66 681.959L1217.45 693.043L1206.36 693.828L1205.58 682.745ZM1216.66 681.959L1227.75 681.174L1228.53 692.257L1217.45 693.043L1216.66 681.959ZM1227.75 681.174L1238.83 680.389L1239.61 691.472L1228.53 692.257L1227.75 681.174ZM1238.83 680.389L1249.91 679.603L1250.7 690.687L1239.61 691.472L1238.83 680.389ZM1249.91 679.603L1261 678.818L1261.78 689.901L1250.7 690.687L1249.91 679.603ZM1261 678.818L1272.08 678.033L1272.86 689.116L1261.78 689.901L1261 678.818ZM1272.86 689.116L1283.95 688.331L1284.73 699.414L1273.65 700.199L1272.86 689.116ZM1261.78 689.901L1272.86 689.116L1273.65 700.199L1262.57 700.985L1261.78 689.901ZM1250.7 690.687L1261.78 689.901L1262.57 700.985L1251.48 701.77L1250.7 690.687ZM1239.61 691.472L1250.7 690.687L1251.48 701.77L1240.4 702.555L1239.61 691.472ZM1228.53 692.257L1239.61 691.472L1240.4 702.555L1229.32 703.341L1228.53 692.257ZM1217.45 693.043L1228.53 692.257L1229.32 703.341L1218.23 704.126L1217.45 693.043ZM1206.36 693.828L1217.45 693.043L1218.23 704.126L1207.15 704.911L1206.36 693.828ZM1195.28 694.613L1206.36 693.828L1207.15 704.911L1196.07 705.697L1195.28 694.613ZM1196.07 705.697L1207.15 704.911L1207.94 715.995L1196.85 716.78L1196.07 705.697ZM1207.15 704.911L1218.23 704.126L1219.02 715.209L1207.94 715.995L1207.15 704.911ZM1184.98 706.482L1196.07 705.697L1196.85 716.78L1185.77 717.565L1184.98 706.482ZM1185.77 717.565L1196.85 716.78L1197.64 727.863L1186.55 728.649L1185.77 717.565ZM1186.55 728.649L1197.64 727.863L1198.42 738.947L1187.34 739.732L1186.55 728.649ZM1197.64 727.863L1208.72 727.078L1209.51 738.161L1198.42 738.947L1197.64 727.863ZM1208.72 727.078L1219.8 726.293L1220.59 737.376L1209.51 738.161L1208.72 727.078ZM1207.94 715.995L1219.02 715.209L1219.8 726.293L1208.72 727.078L1207.94 715.995ZM1196.85 716.78L1207.94 715.995L1208.72 727.078L1197.64 727.863L1196.85 716.78ZM1198.42 738.947L1209.51 738.161L1210.29 749.245L1199.21 750.03L1198.42 738.947ZM1199.21 750.03L1210.29 749.245L1211.08 760.328L1199.99 761.113L1199.21 750.03ZM1199.99 761.113L1211.08 760.328L1211.86 771.411L1200.78 772.197L1199.99 761.113ZM1188.91 761.899L1199.99 761.113L1200.78 772.197L1189.7 772.982L1188.91 761.899ZM1189.7 772.982L1200.78 772.197L1201.56 783.28L1190.48 784.065L1189.7 772.982ZM1188.13 750.815L1199.21 750.03L1199.99 761.113L1188.91 761.899L1188.13 750.815ZM1187.34 739.732L1198.42 738.947L1199.21 750.03L1188.13 750.815L1187.34 739.732ZM1209.51 738.161L1220.59 737.376L1221.38 748.459L1210.29 749.245L1209.51 738.161ZM1210.29 749.245L1221.38 748.459L1222.16 759.543L1211.08 760.328L1210.29 749.245ZM1211.08 760.328L1222.16 759.543L1222.95 770.626L1211.86 771.411L1211.08 760.328ZM1211.86 771.411L1222.95 770.626L1223.73 781.709L1212.65 782.495L1211.86 771.411ZM1200.78 772.197L1211.86 771.411L1212.65 782.495L1201.56 783.28L1200.78 772.197ZM1201.56 783.28L1212.65 782.495L1213.43 793.578L1202.35 794.363L1201.56 783.28ZM1212.65 782.495L1223.73 781.709L1224.52 792.793L1213.43 793.578L1212.65 782.495ZM1223.73 781.709L1234.81 780.924L1235.6 792.007L1224.52 792.793L1223.73 781.709ZM1222.95 770.626L1234.03 769.841L1234.81 780.924L1223.73 781.709L1222.95 770.626ZM1213.43 793.578L1224.52 792.793L1225.3 803.876L1214.22 804.661L1213.43 793.578ZM1224.52 792.793L1235.6 792.007L1236.39 803.091L1225.3 803.876L1224.52 792.793ZM1235.6 792.007L1246.68 791.222L1247.47 802.305L1236.39 803.091L1235.6 792.007ZM1246.68 791.222L1257.77 790.437L1258.55 801.52L1247.47 802.305L1246.68 791.222ZM1257.77 790.437L1268.85 789.651L1269.64 800.735L1258.55 801.52L1257.77 790.437ZM1268.85 789.651L1279.93 788.866L1280.72 799.949L1269.64 800.735L1268.85 789.651ZM1256.98 779.353L1268.06 778.568L1268.85 789.651L1257.77 790.437L1256.98 779.353ZM1245.9 780.139L1256.98 779.353L1257.77 790.437L1246.68 791.222L1245.9 780.139ZM1234.81 780.924L1245.9 780.139L1246.68 791.222L1235.6 792.007L1234.81 780.924ZM1268.06 778.568L1279.15 777.783L1279.93 788.866L1268.85 789.651L1268.06 778.568ZM1279.15 777.783L1290.23 776.997L1291.02 788.081L1279.93 788.866L1279.15 777.783ZM1267.28 767.485L1278.36 766.699L1279.15 777.783L1268.06 778.568L1267.28 767.485ZM1256.2 768.27L1267.28 767.485L1268.06 778.568L1256.98 779.353L1256.2 768.27ZM1278.36 766.699L1289.45 765.914L1290.23 776.997L1279.15 777.783L1278.36 766.699ZM1289.45 765.914L1300.53 765.129L1301.31 776.212L1290.23 776.997L1289.45 765.914ZM1274.44 711.283L1285.52 710.497L1286.3 721.581L1275.22 722.366L1274.44 711.283ZM1285.52 710.497L1296.6 709.712L1297.39 720.795L1286.3 721.581L1285.52 710.497ZM1284.73 699.414L1295.82 698.629L1296.6 709.712L1285.52 710.497L1284.73 699.414ZM1263.35 712.068L1274.44 711.283L1275.22 722.366L1264.14 723.151L1263.35 712.068ZM1262.57 700.985L1273.65 700.199L1274.44 711.283L1263.35 712.068L1262.57 700.985ZM1273.65 700.199L1284.73 699.414L1285.52 710.497L1274.44 711.283L1273.65 700.199ZM1234.03 769.841L1245.11 769.055L1245.9 780.139L1234.81 780.924L1234.03 769.841ZM1245.11 769.055L1256.2 768.27L1256.98 779.353L1245.9 780.139L1245.11 769.055ZM1286.3 721.581L1297.39 720.795L1298.17 731.879L1287.09 732.664L1286.3 721.581ZM1275.22 722.366L1286.3 721.581L1287.09 732.664L1276.01 733.449L1275.22 722.366ZM1264.14 723.151L1275.22 722.366L1276.01 733.449L1264.92 734.235L1264.14 723.151ZM1231.67 736.591L1242.76 735.805L1243.54 746.889L1232.46 747.674L1231.67 736.591ZM1242.76 735.805L1253.84 735.02L1254.63 746.103L1243.54 746.889L1242.76 735.805ZM1253.84 735.02L1264.92 734.235L1265.71 745.318L1254.63 746.103L1253.84 735.02ZM1264.92 734.235L1276.01 733.449L1276.79 744.533L1265.71 745.318L1264.92 734.235ZM1276.01 733.449L1287.09 732.664L1287.87 743.747L1276.79 744.533L1276.01 733.449ZM1287.09 732.664L1298.17 731.879L1298.96 742.962L1287.87 743.747L1287.09 732.664ZM1220.59 737.376L1231.67 736.591L1232.46 747.674L1221.38 748.459L1220.59 737.376ZM1218.23 704.126L1229.32 703.341L1230.1 714.424L1219.02 715.209L1218.23 704.126ZM1229.32 703.341L1240.4 702.555L1241.19 713.639L1230.1 714.424L1229.32 703.341ZM1240.4 702.555L1251.48 701.77L1252.27 712.853L1241.19 713.639L1240.4 702.555ZM1251.48 701.77L1262.57 700.985L1263.35 712.068L1252.27 712.853L1251.48 701.77ZM1287.87 743.747L1298.96 742.962L1299.74 754.045L1288.66 754.831L1287.87 743.747ZM1276.79 744.533L1287.87 743.747L1288.66 754.831L1277.58 755.616L1276.79 744.533ZM1254.63 746.103L1265.71 745.318L1266.49 756.401L1255.41 757.187L1254.63 746.103ZM1243.54 746.889L1254.63 746.103L1255.41 757.187L1244.33 757.972L1243.54 746.889ZM1232.46 747.674L1243.54 746.889L1244.33 757.972L1233.24 758.757L1232.46 747.674ZM1221.38 748.459L1232.46 747.674L1233.24 758.757L1222.16 759.543L1221.38 748.459ZM1265.71 745.318L1276.79 744.533L1277.58 755.616L1266.49 756.401L1265.71 745.318ZM1317.6 674.807L1328.68 674.022L1329.47 685.105L1318.38 685.89L1317.6 674.807ZM1307.3 686.676L1318.38 685.89L1319.17 696.974L1308.09 697.759L1307.3 686.676ZM1308.09 697.759L1319.17 696.974L1319.96 708.057L1308.87 708.842L1308.09 697.759ZM1296.22 687.461L1307.3 686.676L1308.09 697.759L1297 698.545L1296.22 687.461ZM1295.43 676.378L1306.52 675.593L1307.3 686.676L1296.22 687.461L1295.43 676.378ZM1306.52 675.593L1317.6 674.807L1318.38 685.89L1307.3 686.676L1306.52 675.593ZM1308.87 708.842L1319.96 708.057L1320.74 719.14L1309.66 719.926L1308.87 708.842ZM1297.79 709.628L1308.87 708.842L1309.66 719.926L1298.57 720.711L1297.79 709.628ZM1298.57 720.711L1309.66 719.926L1310.44 731.009L1299.36 731.794L1298.57 720.711ZM1297 698.545L1308.09 697.759L1308.87 708.842L1297.79 709.628L1297 698.545ZM1299.36 731.794L1310.44 731.009L1311.23 742.092L1300.15 742.878L1299.36 731.794ZM1300.15 742.878L1311.23 742.092L1312.01 753.176L1300.93 753.961L1300.15 742.878ZM1300.93 753.961L1312.01 753.176L1312.8 764.259L1301.72 765.044L1300.93 753.961ZM1301.72 765.044L1312.8 764.259L1313.58 775.342L1302.5 776.128L1301.72 765.044ZM1302.5 776.128L1313.58 775.342L1314.37 786.426L1303.29 787.211L1302.5 776.128ZM1313.58 775.342L1324.67 774.557L1325.45 785.64L1314.37 786.426L1313.58 775.342ZM1324.67 774.557L1335.75 773.772L1336.54 784.855L1325.45 785.64L1324.67 774.557ZM1325.45 785.64L1336.54 784.855L1337.32 795.938L1326.24 796.724L1325.45 785.64ZM1314.37 786.426L1325.45 785.64L1326.24 796.724L1315.16 797.509L1314.37 786.426ZM1303.29 787.211L1314.37 786.426L1315.16 797.509L1304.07 798.294L1303.29 787.211ZM1323.88 763.474L1334.97 762.688L1335.75 773.772L1324.67 774.557L1323.88 763.474ZM1323.1 752.39L1334.18 751.605L1334.97 762.688L1323.88 763.474L1323.1 752.39ZM1322.31 741.307L1333.39 740.522L1334.18 751.605L1323.1 752.39L1322.31 741.307ZM1321.53 730.224L1332.61 729.438L1333.39 740.522L1322.31 741.307L1321.53 730.224ZM1320.74 719.14L1331.82 718.355L1332.61 729.438L1321.53 730.224L1320.74 719.14ZM1319.96 708.057L1331.04 707.272L1331.82 718.355L1320.74 719.14L1319.96 708.057ZM1319.17 696.974L1330.25 696.188L1331.04 707.272L1319.96 708.057L1319.17 696.974ZM1318.38 685.89L1329.47 685.105L1330.25 696.188L1319.17 696.974L1318.38 685.89ZM1309.66 719.926L1320.74 719.14L1321.53 730.224L1310.44 731.009L1309.66 719.926ZM1311.23 742.092L1322.31 741.307L1323.1 752.39L1312.01 753.176L1311.23 742.092ZM1312.01 753.176L1323.1 752.39L1323.88 763.474L1312.8 764.259L1312.01 753.176ZM1312.8 764.259L1323.88 763.474L1324.67 774.557L1313.58 775.342L1312.8 764.259ZM1310.44 731.009L1321.53 730.224L1322.31 741.307L1311.23 742.092L1310.44 731.009ZM1374.59 693.047L1385.67 692.262L1386.46 703.345L1375.37 704.13L1374.59 693.047ZM1373.8 681.964L1384.88 681.178L1385.67 692.262L1374.59 693.047L1373.8 681.964ZM1362.72 682.749L1373.8 681.964L1374.59 693.047L1363.5 693.832L1362.72 682.749ZM1351.63 683.534L1362.72 682.749L1363.5 693.832L1352.42 694.618L1351.63 683.534ZM1384.88 681.178L1395.97 680.393L1396.75 691.476L1385.67 692.262L1384.88 681.178ZM1373.02 670.88L1384.1 670.095L1384.88 681.178L1373.8 681.964L1373.02 670.88ZM1361.93 671.666L1373.02 670.88L1373.8 681.964L1362.72 682.749L1361.93 671.666ZM1350.85 672.451L1361.93 671.666L1362.72 682.749L1351.63 683.534L1350.85 672.451ZM1339.77 673.236L1350.85 672.451L1351.63 683.534L1340.55 684.32L1339.77 673.236ZM1340.55 684.32L1351.63 683.534L1352.42 694.618L1341.34 695.403L1340.55 684.32ZM1329.47 685.105L1340.55 684.32L1341.34 695.403L1330.25 696.188L1329.47 685.105ZM1330.25 696.188L1341.34 695.403L1342.12 706.486L1331.04 707.272L1330.25 696.188ZM1363.5 693.832L1374.59 693.047L1375.37 704.13L1364.29 704.916L1363.5 693.832ZM1364.29 704.916L1375.37 704.13L1376.16 715.214L1365.07 715.999L1364.29 704.916ZM1352.42 694.618L1363.5 693.832L1364.29 704.916L1353.21 705.701L1352.42 694.618ZM1341.34 695.403L1352.42 694.618L1353.21 705.701L1342.12 706.486L1341.34 695.403ZM1331.04 707.272L1342.12 706.486L1342.91 717.57L1331.82 718.355L1331.04 707.272ZM1407.41 668.443L1418.49 667.658L1419.28 678.741L1408.19 679.527L1407.41 668.443ZM1418.49 667.658L1429.58 666.873L1430.36 677.956L1419.28 678.741L1418.49 667.658ZM1429.58 666.873L1440.66 666.087L1441.44 677.171L1430.36 677.956L1429.58 666.873ZM1440.66 666.087L1451.74 665.302L1452.53 676.385L1441.44 677.171L1440.66 666.087ZM1451.74 665.302L1462.83 664.517L1463.61 675.6L1452.53 676.385L1451.74 665.302ZM1462.83 664.517L1473.91 663.731L1474.69 674.815L1463.61 675.6L1462.83 664.517ZM1474.69 674.815L1485.78 674.029L1486.56 685.112L1475.48 685.898L1474.69 674.815ZM1463.61 675.6L1474.69 674.815L1475.48 685.898L1464.4 686.683L1463.61 675.6ZM1452.53 676.385L1463.61 675.6L1464.4 686.683L1453.31 687.469L1452.53 676.385ZM1441.44 677.171L1452.53 676.385L1453.31 687.469L1442.23 688.254L1441.44 677.171ZM1430.36 677.956L1441.44 677.171L1442.23 688.254L1431.15 689.039L1430.36 677.956ZM1419.28 678.741L1430.36 677.956L1431.15 689.039L1420.06 689.825L1419.28 678.741ZM1408.19 679.527L1419.28 678.741L1420.06 689.825L1408.98 690.61L1408.19 679.527ZM1397.11 680.312L1408.19 679.527L1408.98 690.61L1397.9 691.395L1397.11 680.312ZM1397.9 691.395L1408.98 690.61L1409.77 701.693L1398.68 702.479L1397.9 691.395ZM1408.98 690.61L1420.06 689.825L1420.85 700.908L1409.77 701.693L1408.98 690.61ZM1386.81 692.181L1397.9 691.395L1398.68 702.479L1387.6 703.264L1386.81 692.181ZM1387.6 703.264L1398.68 702.479L1399.47 713.562L1388.38 714.347L1387.6 703.264ZM1388.38 714.347L1399.47 713.562L1400.25 724.645L1389.17 725.431L1388.38 714.347ZM1399.47 713.562L1410.55 712.777L1411.34 723.86L1400.25 724.645L1399.47 713.562ZM1410.55 712.777L1421.63 711.991L1422.42 723.075L1411.34 723.86L1410.55 712.777ZM1409.77 701.693L1420.85 700.908L1421.63 711.991L1410.55 712.777L1409.77 701.693ZM1398.68 702.479L1409.77 701.693L1410.55 712.777L1399.47 713.562L1398.68 702.479ZM1400.25 724.645L1411.34 723.86L1412.12 734.943L1401.04 735.729L1400.25 724.645ZM1401.04 735.729L1412.12 734.943L1412.91 746.027L1401.82 746.812L1401.04 735.729ZM1401.82 746.812L1412.91 746.027L1413.69 757.11L1402.61 757.895L1401.82 746.812ZM1390.74 747.597L1401.82 746.812L1402.61 757.895L1391.53 758.681L1390.74 747.597ZM1391.53 758.681L1402.61 757.895L1403.39 768.979L1392.31 769.764L1391.53 758.681ZM1389.95 736.514L1401.04 735.729L1401.82 746.812L1390.74 747.597L1389.95 736.514ZM1389.17 725.431L1400.25 724.645L1401.04 735.729L1389.95 736.514L1389.17 725.431ZM1411.34 723.86L1422.42 723.075L1423.2 734.158L1412.12 734.943L1411.34 723.86ZM1412.12 734.943L1423.2 734.158L1423.99 745.241L1412.91 746.027L1412.12 734.943ZM1412.91 746.027L1423.99 745.241L1424.78 756.325L1413.69 757.11L1412.91 746.027ZM1413.69 757.11L1424.78 756.325L1425.56 767.408L1414.48 768.193L1413.69 757.11ZM1402.61 757.895L1413.69 757.11L1414.48 768.193L1403.39 768.979L1402.61 757.895ZM1403.39 768.979L1414.48 768.193L1415.26 779.277L1404.18 780.062L1403.39 768.979ZM1414.48 768.193L1425.56 767.408L1426.35 778.491L1415.26 779.277L1414.48 768.193ZM1425.56 767.408L1436.64 766.622L1437.43 777.706L1426.35 778.491L1425.56 767.408ZM1424.78 756.325L1435.86 755.539L1436.64 766.622L1425.56 767.408L1424.78 756.325ZM1415.26 779.277L1426.35 778.491L1427.13 789.574L1416.05 790.36L1415.26 779.277ZM1426.35 778.491L1437.43 777.706L1438.22 788.789L1427.13 789.574L1426.35 778.491ZM1437.43 777.706L1448.51 776.92L1449.3 788.004L1438.22 788.789L1437.43 777.706ZM1448.51 776.92L1459.6 776.135L1460.38 787.218L1449.3 788.004L1448.51 776.92ZM1459.6 776.135L1470.68 775.35L1471.46 786.433L1460.38 787.218L1459.6 776.135ZM1470.68 775.35L1481.76 774.564L1482.55 785.648L1471.46 786.433L1470.68 775.35ZM1458.81 765.052L1469.89 764.266L1470.68 775.35L1459.6 776.135L1458.81 765.052ZM1447.73 765.837L1458.81 765.052L1459.6 776.135L1448.51 776.92L1447.73 765.837ZM1436.64 766.622L1447.73 765.837L1448.51 776.92L1437.43 777.706L1436.64 766.622ZM1469.89 764.266L1480.98 763.481L1481.76 774.564L1470.68 775.35L1469.89 764.266ZM1480.98 763.481L1492.06 762.696L1492.85 773.779L1481.76 774.564L1480.98 763.481ZM1469.11 753.183L1480.19 752.398L1480.98 763.481L1469.89 764.266L1469.11 753.183ZM1458.03 753.968L1469.11 753.183L1469.89 764.266L1458.81 765.052L1458.03 753.968ZM1480.19 752.398L1491.28 751.612L1492.06 762.696L1480.98 763.481L1480.19 752.398ZM1491.28 751.612L1502.36 750.827L1503.14 761.91L1492.06 762.696L1491.28 751.612ZM1476.27 696.981L1487.35 696.196L1488.13 707.279L1477.05 708.064L1476.27 696.981ZM1487.35 696.196L1498.43 695.41L1499.22 706.494L1488.13 707.279L1487.35 696.196ZM1486.56 685.112L1497.65 684.327L1498.43 695.41L1487.35 696.196L1486.56 685.112ZM1465.18 697.767L1476.27 696.981L1477.05 708.064L1465.97 708.85L1465.18 697.767ZM1464.4 686.683L1475.48 685.898L1476.27 696.981L1465.18 697.767L1464.4 686.683ZM1475.48 685.898L1486.56 685.112L1487.35 696.196L1476.27 696.981L1475.48 685.898ZM1435.86 755.539L1446.94 754.754L1447.73 765.837L1436.64 766.622L1435.86 755.539ZM1446.94 754.754L1458.03 753.968L1458.81 765.052L1447.73 765.837L1446.94 754.754ZM1488.13 707.279L1499.22 706.494L1500 717.577L1488.92 718.362L1488.13 707.279ZM1477.05 708.064L1488.13 707.279L1488.92 718.362L1477.84 719.148L1477.05 708.064ZM1465.97 708.85L1477.05 708.064L1477.84 719.148L1466.75 719.933L1465.97 708.85ZM1433.5 722.289L1444.59 721.504L1445.37 732.587L1434.29 733.373L1433.5 722.289ZM1444.59 721.504L1455.67 720.719L1456.45 731.802L1445.37 732.587L1444.59 721.504ZM1455.67 720.719L1466.75 719.933L1467.54 731.016L1456.45 731.802L1455.67 720.719ZM1466.75 719.933L1477.84 719.148L1478.62 730.231L1467.54 731.016L1466.75 719.933ZM1477.84 719.148L1488.92 718.362L1489.7 729.446L1478.62 730.231L1477.84 719.148ZM1488.92 718.362L1500 717.577L1500.79 728.66L1489.7 729.446L1488.92 718.362ZM1422.42 723.075L1433.5 722.289L1434.29 733.373L1423.2 734.158L1422.42 723.075ZM1420.06 689.825L1431.15 689.039L1431.93 700.123L1420.85 700.908L1420.06 689.825ZM1431.15 689.039L1442.23 688.254L1443.02 699.337L1431.93 700.123L1431.15 689.039ZM1442.23 688.254L1453.31 687.469L1454.1 698.552L1443.02 699.337L1442.23 688.254ZM1453.31 687.469L1464.4 686.683L1465.18 697.767L1454.1 698.552L1453.31 687.469ZM1489.7 729.446L1500.79 728.66L1501.57 739.744L1490.49 740.529L1489.7 729.446ZM1478.62 730.231L1489.7 729.446L1490.49 740.529L1479.41 741.314L1478.62 730.231ZM1456.45 731.802L1467.54 731.016L1468.32 742.1L1457.24 742.885L1456.45 731.802ZM1445.37 732.587L1456.45 731.802L1457.24 742.885L1446.16 743.671L1445.37 732.587ZM1434.29 733.373L1445.37 732.587L1446.16 743.671L1435.07 744.456L1434.29 733.373ZM1423.2 734.158L1434.29 733.373L1435.07 744.456L1423.99 745.241L1423.2 734.158ZM1467.54 731.016L1478.62 730.231L1479.41 741.314L1468.32 742.1L1467.54 731.016Z" fill="#CAD5E2"/>
<g filter="url(#filter1_g_1190_99)">
<path d="M616.145 1080.06C717.769 1169.09 1371.84 986.487 1449.86 970.961C1527.88 955.434 1551.76 946.369 1575.59 934.48C1623.41 910.627 1655.94 883.989 1672.07 868.058C1698.39 842.066 1713.19 785.382 1715.37 747.909C1716.5 728.48 1708.32 708.721 1697.17 683.543C1681.92 649.094 1654.33 613.547 1615.58 572.622C1592.72 548.476 1559.13 522.376 1516.05 495.048C1472.96 467.719 1420.3 441.205 1373.6 422.358C1326.89 403.51 1287.73 393.131 1229.13 390.219C1170.53 387.308 1093.68 392.177 1030.93 400.961C968.175 409.745 921.844 422.297 880.733 436.492C839.622 450.687 805.135 466.146 743.814 501.026C682.493 535.907 595.383 589.741 545.427 621.394C484.79 659.815 465.05 683.214 449.037 707.383C430.681 735.088 425.987 766.299 434.962 813.151C437.956 828.782 446.928 843.75 457.347 858.672C467.767 873.595 505.225 943.132 573.713 980.1C642.201 1017.07 931.831 1191.39 1049.14 1163.77" stroke="#5C9FF8" stroke-width="60" stroke-linecap="round"/>
</g>
<defs>
<filter id="filter0_g_1190_99" x="0.291016" y="-0.0090332" width="891.011" height="617.078" filterUnits="userSpaceOnUse" color-interpolation-filters="sRGB">
<feFlood flood-opacity="0" result="BackgroundImageFix"/>
<feBlend mode="normal" in="SourceGraphic" in2="BackgroundImageFix" result="shape"/>
<feTurbulence type="fractalNoise" baseFrequency="0.05000000074505806 0.05000000074505806" numOctaves="3" seed="7757" />
<feDisplacementMap in="shape" scale="20" xChannelSelector="R" yChannelSelector="G" result="displacedImage" width="100%" height="100%" />
<feMerge result="effect1_texture_1190_99">
<feMergeNode in="displacedImage"/>
</feMerge>
</filter>
<filter id="filter1_g_1190_99" x="390.551" y="349.375" width="1364.92" height="857.342" filterUnits="userSpaceOnUse" color-interpolation-filters="sRGB">
<feFlood flood-opacity="0" result="BackgroundImageFix"/>
<feBlend mode="normal" in="SourceGraphic" in2="BackgroundImageFix" result="shape"/>
<feTurbulence type="fractalNoise" baseFrequency="0.05000000074505806 0.05000000074505806" numOctaves="3" seed="3228" />
<feDisplacementMap in="shape" scale="20" xChannelSelector="R" yChannelSelector="G" result="displacedImage" width="100%" height="100%" />
<feMerge result="effect1_texture_1190_99">
<feMergeNode in="displacedImage"/>
</feMerge>
</filter>
</defs>
</svg>
