<svg width="1796" height="1448" viewBox="0 0 1796 1448" fill="none" xmlns="http://www.w3.org/2000/svg">
<g filter="url(#filter0_g_1188_89)">
<path d="M117.11 31.3896C123.522 14.3295 142.55 5.69764 159.61 12.1099L437.621 116.603C454.681 123.015 463.313 142.043 456.901 159.104C450.489 176.164 431.461 184.796 414.4 178.383L167.28 85.5005L74.3967 332.621C67.9845 349.682 48.9563 358.313 31.8962 351.901C14.8361 345.489 6.20421 326.461 12.6164 309.401L117.11 31.3896ZM839.831 524.661C857.416 519.873 875.553 530.247 880.341 547.832C885.129 565.417 874.755 583.555 857.17 588.342L839.831 524.661ZM148 43L178.052 29.3671C223.213 128.921 296.753 279.703 406.386 392.221C514.867 503.557 655.617 574.816 839.831 524.661L848.5 556.501L857.17 588.342C642.884 646.685 478.633 560.943 359.115 438.28C240.747 316.797 163.287 156.579 117.947 56.6328L148 43Z" fill="#5C9FF8"/>
</g>
<path d="M665.08 721.059L676.163 720.273L676.949 731.357L665.865 732.142L665.08 721.059ZM676.163 720.273L687.247 719.488L688.032 730.571L676.949 731.357L676.163 720.273ZM687.247 719.488L698.33 718.703L699.115 729.786L688.032 730.571L687.247 719.488ZM698.33 718.703L709.413 717.917L710.199 729.001L699.115 729.786L698.33 718.703ZM709.413 717.917L720.497 717.132L721.282 728.215L710.199 729.001L709.413 717.917ZM720.497 717.132L731.58 716.347L732.365 727.43L721.282 728.215L720.497 717.132ZM732.365 727.43L743.449 726.645L744.234 737.728L733.151 738.513L732.365 727.43ZM721.282 728.215L732.365 727.43L733.151 738.513L722.067 739.299L721.282 728.215ZM710.199 729.001L721.282 728.215L722.067 739.299L710.984 740.084L710.199 729.001ZM699.115 729.786L710.199 729.001L710.984 740.084L699.901 740.869L699.115 729.786ZM688.032 730.571L699.115 729.786L699.901 740.869L688.817 741.655L688.032 730.571ZM676.949 731.357L688.032 730.571L688.817 741.655L677.734 742.44L676.949 731.357ZM665.865 732.142L676.949 731.357L677.734 742.44L666.651 743.225L665.865 732.142ZM654.782 732.927L665.865 732.142L666.651 743.225L655.567 744.011L654.782 732.927ZM655.567 744.011L666.651 743.225L667.436 754.309L656.353 755.094L655.567 744.011ZM666.651 743.225L677.734 742.44L678.519 753.523L667.436 754.309L666.651 743.225ZM644.484 744.796L655.567 744.011L656.353 755.094L645.269 755.879L644.484 744.796ZM645.269 755.879L656.353 755.094L657.138 766.177L646.055 766.963L645.269 755.879ZM646.055 766.963L657.138 766.177L657.923 777.261L646.84 778.046L646.055 766.963ZM657.138 766.177L668.221 765.392L669.007 776.475L657.923 777.261L657.138 766.177ZM668.221 765.392L679.305 764.607L680.09 775.69L669.007 776.475L668.221 765.392ZM667.436 754.309L678.519 753.523L679.305 764.607L668.221 765.392L667.436 754.309ZM656.353 755.094L667.436 754.309L668.221 765.392L657.138 766.177L656.353 755.094ZM657.923 777.261L669.007 776.475L669.792 787.559L658.709 788.344L657.923 777.261ZM658.709 788.344L669.792 787.559L670.577 798.642L659.494 799.427L658.709 788.344ZM659.494 799.427L670.577 798.642L671.363 809.725L660.279 810.511L659.494 799.427ZM648.411 800.213L659.494 799.427L660.279 810.511L649.196 811.296L648.411 800.213ZM649.196 811.296L660.279 810.511L661.065 821.594L649.981 822.379L649.196 811.296ZM647.625 789.129L658.709 788.344L659.494 799.427L648.411 800.213L647.625 789.129ZM646.84 778.046L657.923 777.261L658.709 788.344L647.625 789.129L646.84 778.046ZM669.007 776.475L680.09 775.69L680.875 786.773L669.792 787.559L669.007 776.475ZM669.792 787.559L680.875 786.773L681.661 797.857L670.577 798.642L669.792 787.559ZM670.577 798.642L681.661 797.857L682.446 808.94L671.363 809.725L670.577 798.642ZM671.363 809.725L682.446 808.94L683.231 820.023L672.148 820.809L671.363 809.725ZM660.279 810.511L671.363 809.725L672.148 820.809L661.065 821.594L660.279 810.511ZM661.065 821.594L672.148 820.809L672.933 831.892L661.85 832.677L661.065 821.594ZM672.148 820.809L683.231 820.023L684.017 831.107L672.933 831.892L672.148 820.809ZM683.231 820.023L694.315 819.238L695.1 830.321L684.017 831.107L683.231 820.023ZM682.446 808.94L693.529 808.155L694.315 819.238L683.231 820.023L682.446 808.94ZM672.933 831.892L684.017 831.107L684.802 842.19L673.719 842.975L672.933 831.892ZM684.017 831.107L695.1 830.321L695.885 841.405L684.802 842.19L684.017 831.107ZM695.1 830.321L706.183 829.536L706.969 840.619L695.885 841.405L695.1 830.321ZM706.183 829.536L717.267 828.751L718.052 839.834L706.969 840.619L706.183 829.536ZM717.267 828.751L728.35 827.965L729.135 839.048L718.052 839.834L717.267 828.751ZM728.35 827.965L739.433 827.18L740.219 838.263L729.135 839.048L728.35 827.965ZM716.481 817.667L727.565 816.882L728.35 827.965L717.267 828.751L716.481 817.667ZM705.398 818.453L716.481 817.667L717.267 828.751L706.183 829.536L705.398 818.453ZM694.315 819.238L705.398 818.453L706.183 829.536L695.1 830.321L694.315 819.238ZM727.565 816.882L738.648 816.096L739.433 827.18L728.35 827.965L727.565 816.882ZM738.648 816.096L749.731 815.311L750.517 826.394L739.433 827.18L738.648 816.096ZM726.779 805.799L737.863 805.013L738.648 816.096L727.565 816.882L726.779 805.799ZM715.696 806.584L726.779 805.799L727.565 816.882L716.481 817.667L715.696 806.584ZM737.863 805.013L748.946 804.228L749.731 815.311L738.648 816.096L737.863 805.013ZM748.946 804.228L760.029 803.442L760.815 814.526L749.731 815.311L748.946 804.228ZM748.161 793.144L759.244 792.359L760.029 803.442L748.946 804.228L748.161 793.144ZM737.077 793.93L748.161 793.144L748.946 804.228L737.863 805.013L737.077 793.93ZM725.994 794.715L737.077 793.93L737.863 805.013L726.779 805.799L725.994 794.715ZM733.936 749.597L745.019 748.811L745.805 759.895L734.721 760.68L733.936 749.597ZM745.019 748.811L756.103 748.026L756.888 759.109L745.805 759.895L745.019 748.811ZM744.234 737.728L755.317 736.943L756.103 748.026L745.019 748.811L744.234 737.728ZM722.853 750.382L733.936 749.597L734.721 760.68L723.638 761.465L722.853 750.382ZM722.067 739.299L733.151 738.513L733.936 749.597L722.853 750.382L722.067 739.299ZM710.984 740.084L722.067 739.299L722.853 750.382L711.769 751.167L710.984 740.084ZM733.151 738.513L744.234 737.728L745.019 748.811L733.936 749.597L733.151 738.513ZM677.734 742.44L688.817 741.655L689.603 752.738L678.519 753.523L677.734 742.44ZM688.817 741.655L699.901 740.869L700.686 751.953L689.603 752.738L688.817 741.655ZM699.901 740.869L710.984 740.084L711.769 751.167L700.686 751.953L699.901 740.869ZM693.529 808.155L704.613 807.369L705.398 818.453L694.315 819.238L693.529 808.155ZM704.613 807.369L715.696 806.584L716.481 817.667L705.398 818.453L704.613 807.369ZM751.792 670.359L762.875 669.573L763.66 680.656L752.577 681.442L751.792 670.359ZM752.577 681.442L763.66 680.656L764.446 691.74L753.362 692.525L752.577 681.442ZM753.362 692.525L764.446 691.74L765.231 702.823L754.148 703.608L753.362 692.525ZM754.148 703.608L765.231 702.823L766.017 713.906L754.933 714.692L754.148 703.608ZM754.933 714.692L766.017 713.906L766.802 724.99L755.719 725.775L754.933 714.692ZM755.719 725.775L766.802 724.99L767.587 736.073L756.504 736.858L755.719 725.775ZM756.504 736.858L767.587 736.073L768.373 747.156L757.289 747.942L756.504 736.858ZM757.289 747.942L768.373 747.156L769.158 758.24L758.075 759.025L757.289 747.942ZM758.075 759.025L769.158 758.24L769.943 769.323L758.86 770.108L758.075 759.025ZM758.86 770.108L769.943 769.323L770.729 780.406L759.645 781.192L758.86 770.108ZM759.645 781.192L770.729 780.406L771.514 791.49L760.431 792.275L759.645 781.192ZM760.431 792.275L771.514 791.49L772.299 802.573L761.216 803.358L760.431 792.275ZM761.216 803.358L772.299 802.573L773.085 813.656L762.001 814.442L761.216 803.358ZM762.001 814.442L773.085 813.656L773.87 824.74L762.787 825.525L762.001 814.442ZM762.787 825.525L773.87 824.74L774.655 835.823L763.572 836.608L762.787 825.525ZM773.87 824.74L784.953 823.954L785.739 835.038L774.655 835.823L773.87 824.74ZM784.953 823.954L796.037 823.169L796.822 834.252L785.739 835.038L784.953 823.954ZM784.168 812.871L795.251 812.086L796.037 823.169L784.953 823.954L784.168 812.871ZM783.383 801.788L794.466 801.002L795.251 812.086L784.168 812.871L783.383 801.788ZM782.597 790.704L793.681 789.919L794.466 801.002L783.383 801.788L782.597 790.704ZM781.812 779.621L792.895 778.836L793.681 789.919L782.597 790.704L781.812 779.621ZM781.027 768.538L792.11 767.752L792.895 778.836L781.812 779.621L781.027 768.538ZM780.241 757.454L791.325 756.669L792.11 767.752L781.027 768.538L780.241 757.454ZM779.456 746.371L790.539 745.586L791.325 756.669L780.241 757.454L779.456 746.371ZM778.671 735.288L789.754 734.502L790.539 745.586L779.456 746.371L778.671 735.288ZM773.958 668.788L785.042 668.002L785.827 679.086L774.744 679.871L773.958 668.788ZM762.875 669.573L773.958 668.788L774.744 679.871L763.66 680.656L762.875 669.573ZM763.66 680.656L774.744 679.871L775.529 690.954L764.446 691.74L763.66 680.656ZM774.744 679.871L785.827 679.086L786.612 690.169L775.529 690.954L774.744 679.871ZM775.529 690.954L786.612 690.169L787.398 701.252L776.314 702.038L775.529 690.954ZM776.314 702.038L787.398 701.252L788.183 712.336L777.1 713.121L776.314 702.038ZM777.1 713.121L788.183 712.336L788.969 723.419L777.885 724.204L777.1 713.121ZM777.885 724.204L788.969 723.419L789.754 734.502L778.671 735.288L777.885 724.204ZM766.017 713.906L777.1 713.121L777.885 724.204L766.802 724.99L766.017 713.906ZM765.231 702.823L776.314 702.038L777.1 713.121L766.017 713.906L765.231 702.823ZM764.446 691.74L775.529 690.954L776.314 702.038L765.231 702.823L764.446 691.74ZM766.802 724.99L777.885 724.204L778.671 735.288L767.587 736.073L766.802 724.99ZM767.587 736.073L778.671 735.288L779.456 746.371L768.373 747.156L767.587 736.073ZM773.085 813.656L784.168 812.871L784.953 823.954L773.87 824.74L773.085 813.656ZM772.299 802.573L783.383 801.788L784.168 812.871L773.085 813.656L772.299 802.573ZM771.514 791.49L782.597 790.704L783.383 801.788L772.299 802.573L771.514 791.49ZM770.729 780.406L781.812 779.621L782.597 790.704L771.514 791.49L770.729 780.406ZM769.943 769.323L781.027 768.538L781.812 779.621L770.729 780.406L769.943 769.323ZM769.158 758.24L780.241 757.454L781.027 768.538L769.943 769.323L769.158 758.24ZM768.373 747.156L779.456 746.371L780.241 757.454L769.158 758.24L768.373 747.156ZM786.369 667.908L797.452 667.123L798.238 678.206L787.154 678.992L786.369 667.908ZM787.154 678.992L798.238 678.206L799.023 689.29L787.94 690.075L787.154 678.992ZM787.94 690.075L799.023 689.29L799.809 700.373L788.725 701.158L787.94 690.075ZM790.296 723.325L801.379 722.54L802.165 733.623L791.081 734.408L790.296 723.325ZM791.081 734.408L802.165 733.623L802.95 744.706L791.867 745.492L791.081 734.408ZM791.867 745.492L802.95 744.706L803.735 755.79L792.652 756.575L791.867 745.492ZM792.652 756.575L803.735 755.79L804.521 766.873L793.437 767.658L792.652 756.575ZM793.437 767.658L804.521 766.873L805.306 777.956L794.223 778.742L793.437 767.658ZM794.223 778.742L805.306 777.956L806.091 789.04L795.008 789.825L794.223 778.742ZM795.008 789.825L806.091 789.04L806.877 800.123L795.793 800.908L795.008 789.825ZM795.793 800.908L806.877 800.123L807.662 811.206L796.579 811.992L795.793 800.908ZM796.579 811.992L807.662 811.206L808.447 822.29L797.364 823.075L796.579 811.992ZM797.364 823.075L808.447 822.29L809.233 833.373L798.149 834.158L797.364 823.075ZM808.447 822.29L819.531 821.504L820.316 832.588L809.233 833.373L808.447 822.29ZM819.531 821.504L830.614 820.719L831.399 831.802L820.316 832.588L819.531 821.504ZM818.745 810.421L829.829 809.636L830.614 820.719L819.531 821.504L818.745 810.421ZM817.96 799.338L829.043 798.552L829.829 809.636L818.745 810.421L817.96 799.338ZM817.175 788.254L828.258 787.469L829.043 798.552L817.96 799.338L817.175 788.254ZM816.389 777.171L827.473 776.386L828.258 787.469L817.175 788.254L816.389 777.171ZM815.604 766.088L826.687 765.302L827.473 776.386L816.389 777.171L815.604 766.088ZM814.819 755.004L825.902 754.219L826.687 765.302L815.604 766.088L814.819 755.004ZM814.033 743.921L825.117 743.136L825.902 754.219L814.819 755.004L814.033 743.921ZM813.248 732.838L824.331 732.052L825.117 743.136L814.033 743.921L813.248 732.838ZM808.536 666.338L819.619 665.552L820.404 676.636L809.321 677.421L808.536 666.338ZM797.452 667.123L808.536 666.338L809.321 677.421L798.238 678.206L797.452 667.123ZM798.238 678.206L809.321 677.421L810.106 688.504L799.023 689.29L798.238 678.206ZM809.321 677.421L820.404 676.636L821.19 687.719L810.106 688.504L809.321 677.421ZM810.106 688.504L821.19 687.719L821.975 698.802L810.892 699.588L810.106 688.504ZM812.463 721.754L823.546 720.969L824.331 732.052L813.248 732.838L812.463 721.754ZM799.023 689.29L810.106 688.504L810.892 699.588L799.809 700.373L799.023 689.29ZM801.379 722.54L812.463 721.754L813.248 732.838L802.165 733.623L801.379 722.54ZM802.165 733.623L813.248 732.838L814.033 743.921L802.95 744.706L802.165 733.623ZM807.662 811.206L818.745 810.421L819.531 821.504L808.447 822.29L807.662 811.206ZM806.877 800.123L817.96 799.338L818.745 810.421L807.662 811.206L806.877 800.123ZM806.091 789.04L817.175 788.254L817.96 799.338L806.877 800.123L806.091 789.04ZM805.306 777.956L816.389 777.171L817.175 788.254L806.091 789.04L805.306 777.956ZM804.521 766.873L815.604 766.088L816.389 777.171L805.306 777.956L804.521 766.873ZM803.735 755.79L814.819 755.004L815.604 766.088L804.521 766.873L803.735 755.79ZM802.95 744.706L814.033 743.921L814.819 755.004L803.735 755.79L802.95 744.706ZM846.255 708.221L857.338 707.436L858.123 718.519L847.04 719.304L846.255 708.221ZM857.338 707.436L868.421 706.65L869.207 717.733L858.123 718.519L857.338 707.436ZM868.421 706.65L879.505 705.865L880.29 716.948L869.207 717.733L868.421 706.65ZM879.505 705.865L890.588 705.079L891.373 716.163L880.29 716.948L879.505 705.865ZM890.588 705.079L901.671 704.294L902.457 715.377L891.373 716.163L890.588 705.079ZM901.671 704.294L912.754 703.509L913.54 714.592L902.457 715.377L901.671 704.294ZM913.54 714.592L924.623 713.807L925.409 724.89L914.325 725.675L913.54 714.592ZM902.457 715.377L913.54 714.592L914.325 725.675L903.242 726.461L902.457 715.377ZM891.373 716.163L902.457 715.377L903.242 726.461L892.159 727.246L891.373 716.163ZM880.29 716.948L891.373 716.163L892.159 727.246L881.075 728.031L880.29 716.948ZM869.207 717.733L880.29 716.948L881.075 728.031L869.992 728.817L869.207 717.733ZM858.123 718.519L869.207 717.733L869.992 728.817L858.909 729.602L858.123 718.519ZM847.04 719.304L858.123 718.519L858.909 729.602L847.825 730.388L847.04 719.304ZM835.957 720.09L847.04 719.304L847.825 730.388L836.742 731.173L835.957 720.09ZM836.742 731.173L847.825 730.388L848.611 741.471L837.527 742.256L836.742 731.173ZM847.825 730.388L858.909 729.602L859.694 740.685L848.611 741.471L847.825 730.388ZM825.659 731.958L836.742 731.173L837.527 742.256L826.444 743.042L825.659 731.958ZM826.444 743.042L837.527 742.256L838.313 753.34L827.229 754.125L826.444 743.042ZM827.229 754.125L838.313 753.34L839.098 764.423L828.015 765.208L827.229 754.125ZM838.313 753.34L849.396 752.554L850.181 763.637L839.098 764.423L838.313 753.34ZM849.396 752.554L860.479 751.769L861.265 762.852L850.181 763.637L849.396 752.554ZM848.611 741.471L859.694 740.685L860.479 751.769L849.396 752.554L848.611 741.471ZM837.527 742.256L848.611 741.471L849.396 752.554L838.313 753.34L837.527 742.256ZM839.098 764.423L850.181 763.637L850.967 774.721L839.883 775.506L839.098 764.423ZM839.883 775.506L850.967 774.721L851.752 785.804L840.669 786.589L839.883 775.506ZM840.669 786.589L851.752 785.804L852.537 796.887L841.454 797.673L840.669 786.589ZM829.585 787.375L840.669 786.589L841.454 797.673L830.371 798.458L829.585 787.375ZM830.371 798.458L841.454 797.673L842.239 808.756L831.156 809.541L830.371 798.458ZM828.8 776.292L839.883 775.506L840.669 786.589L829.585 787.375L828.8 776.292ZM828.015 765.208L839.098 764.423L839.883 775.506L828.8 776.292L828.015 765.208ZM850.181 763.637L861.265 762.852L862.05 773.935L850.967 774.721L850.181 763.637ZM850.967 774.721L862.05 773.935L862.835 785.019L851.752 785.804L850.967 774.721ZM851.752 785.804L862.835 785.019L863.621 796.102L852.537 796.887L851.752 785.804ZM852.537 796.887L863.621 796.102L864.406 807.185L853.323 807.971L852.537 796.887ZM841.454 797.673L852.537 796.887L853.323 807.971L842.239 808.756L841.454 797.673ZM842.239 808.756L853.323 807.971L854.108 819.054L843.025 819.839L842.239 808.756ZM853.323 807.971L864.406 807.185L865.191 818.269L854.108 819.054L853.323 807.971ZM864.406 807.185L875.489 806.4L876.275 817.483L865.191 818.269L864.406 807.185ZM863.621 796.102L874.704 795.317L875.489 806.4L864.406 807.185L863.621 796.102ZM854.108 819.054L865.191 818.269L865.977 829.352L854.893 830.137L854.108 819.054ZM865.191 818.269L876.275 817.483L877.06 828.567L865.977 829.352L865.191 818.269ZM876.275 817.483L887.358 816.698L888.143 827.781L877.06 828.567L876.275 817.483ZM887.358 816.698L898.441 815.913L899.227 826.996L888.143 827.781L887.358 816.698ZM898.441 815.913L909.525 815.127L910.31 826.211L899.227 826.996L898.441 815.913ZM909.525 815.127L920.608 814.342L921.393 825.425L910.31 826.211L909.525 815.127ZM897.656 804.829L908.739 804.044L909.525 815.127L898.441 815.913L897.656 804.829ZM886.573 805.615L897.656 804.829L898.441 815.913L887.358 816.698L886.573 805.615ZM875.489 806.4L886.573 805.615L887.358 816.698L876.275 817.483L875.489 806.4ZM908.739 804.044L919.823 803.259L920.608 814.342L909.525 815.127L908.739 804.044ZM919.823 803.259L930.906 802.473L931.691 813.557L920.608 814.342L919.823 803.259ZM907.954 792.961L919.037 792.175L919.823 803.259L908.739 804.044L907.954 792.961ZM896.871 793.746L907.954 792.961L908.739 804.044L897.656 804.829L896.871 793.746ZM919.037 792.175L930.121 791.39L930.906 802.473L919.823 803.259L919.037 792.175ZM930.121 791.39L941.204 790.605L941.989 801.688L930.906 802.473L930.121 791.39ZM929.335 780.307L940.419 779.521L941.204 790.605L930.121 791.39L929.335 780.307ZM918.252 781.092L929.335 780.307L930.121 791.39L919.037 792.175L918.252 781.092ZM907.169 781.877L918.252 781.092L919.037 792.175L907.954 792.961L907.169 781.877ZM915.111 736.759L926.194 735.973L926.979 747.057L915.896 747.842L915.111 736.759ZM926.194 735.973L937.277 735.188L938.063 746.271L926.979 747.057L926.194 735.973ZM925.409 724.89L936.492 724.105L937.277 735.188L926.194 735.973L925.409 724.89ZM904.027 737.544L915.111 736.759L915.896 747.842L904.813 748.627L904.027 737.544ZM903.242 726.461L914.325 725.675L915.111 736.759L904.027 737.544L903.242 726.461ZM892.159 727.246L903.242 726.461L904.027 737.544L892.944 738.329L892.159 727.246ZM914.325 725.675L925.409 724.89L926.194 735.973L915.111 736.759L914.325 725.675ZM858.909 729.602L869.992 728.817L870.777 739.9L859.694 740.685L858.909 729.602ZM869.992 728.817L881.075 728.031L881.861 739.115L870.777 739.9L869.992 728.817ZM881.075 728.031L892.159 727.246L892.944 738.329L881.861 739.115L881.075 728.031ZM874.704 795.317L885.787 794.531L886.573 805.615L875.489 806.4L874.704 795.317ZM885.787 794.531L896.871 793.746L897.656 804.829L886.573 805.615L885.787 794.531ZM932.966 657.521L944.05 656.735L944.835 667.819L933.752 668.604L932.966 657.521ZM944.05 656.735L955.133 655.95L955.918 667.033L944.835 667.819L944.05 656.735ZM955.918 667.033L967.002 666.248L967.787 677.331L956.704 678.117L955.918 667.033ZM956.704 678.117L967.787 677.331L968.572 688.415L957.489 689.2L956.704 678.117ZM957.489 689.2L968.572 688.415L969.358 699.498L958.274 700.283L957.489 689.2ZM958.274 700.283L969.358 699.498L970.143 710.581L959.06 711.367L958.274 700.283ZM959.06 711.367L970.143 710.581L970.928 721.665L959.845 722.45L959.06 711.367ZM959.845 722.45L970.928 721.665L971.714 732.748L960.631 733.533L959.845 722.45ZM949.547 734.319L960.631 733.533L961.416 744.617L950.333 745.402L949.547 734.319ZM950.333 745.402L961.416 744.617L962.201 755.7L951.118 756.485L950.333 745.402ZM948.762 723.235L959.845 722.45L960.631 733.533L949.547 734.319L948.762 723.235ZM947.976 712.152L959.06 711.367L959.845 722.45L948.762 723.235L947.976 712.152ZM955.133 655.95L966.216 655.165L967.002 666.248L955.918 667.033L955.133 655.95ZM944.835 667.819L955.918 667.033L956.704 678.117L945.62 678.902L944.835 667.819ZM945.62 678.902L956.704 678.117L957.489 689.2L946.406 689.985L945.62 678.902ZM934.537 679.687L945.62 678.902L946.406 689.985L935.322 690.771L934.537 679.687ZM935.322 690.771L946.406 689.985L947.191 701.069L936.108 701.854L935.322 690.771ZM936.108 701.854L947.191 701.069L947.976 712.152L936.893 712.937L936.108 701.854ZM947.191 701.069L958.274 700.283L959.06 711.367L947.976 712.152L947.191 701.069ZM946.406 689.985L957.489 689.2L958.274 700.283L947.191 701.069L946.406 689.985ZM933.752 668.604L944.835 667.819L945.62 678.902L934.537 679.687L933.752 668.604ZM936.893 712.937L947.976 712.152L948.762 723.235L937.679 724.021L936.893 712.937ZM937.679 724.021L948.762 723.235L949.547 734.319L938.464 735.104L937.679 724.021ZM938.464 735.104L949.547 734.319L950.333 745.402L939.249 746.187L938.464 735.104ZM939.249 746.187L950.333 745.402L951.118 756.485L940.035 757.271L939.249 746.187ZM940.035 757.271L951.118 756.485L951.903 767.569L940.82 768.354L940.035 757.271ZM940.82 768.354L951.903 767.569L952.689 778.652L941.605 779.437L940.82 768.354ZM941.605 779.437L952.689 778.652L953.474 789.735L942.391 790.521L941.605 779.437ZM942.391 790.521L953.474 789.735L954.259 800.818L943.176 801.604L942.391 790.521ZM943.176 801.604L954.259 800.818L955.045 811.902L943.961 812.687L943.176 801.604ZM943.961 812.687L955.045 811.902L955.83 822.985L944.747 823.77L943.961 812.687ZM955.045 811.902L966.128 811.116L966.913 822.2L955.83 822.985L955.045 811.902ZM966.128 811.116L977.211 810.331L977.997 821.414L966.913 822.2L966.128 811.116ZM965.343 800.033L976.426 799.248L977.211 810.331L966.128 811.116L965.343 800.033ZM964.557 788.95L975.641 788.164L976.426 799.248L965.343 800.033L964.557 788.95ZM963.772 777.866L974.855 777.081L975.641 788.164L964.557 788.95L963.772 777.866ZM962.987 766.783L974.07 765.998L974.855 777.081L963.772 777.866L962.987 766.783ZM962.201 755.7L973.285 754.914L974.07 765.998L962.987 766.783L962.201 755.7ZM961.416 744.617L972.499 743.831L973.285 754.914L962.201 755.7L961.416 744.617ZM960.631 733.533L971.714 732.748L972.499 743.831L961.416 744.617L960.631 733.533ZM951.118 756.485L962.201 755.7L962.987 766.783L951.903 767.569L951.118 756.485ZM951.903 767.569L962.987 766.783L963.772 777.866L952.689 778.652L951.903 767.569ZM954.259 800.818L965.343 800.033L966.128 811.116L955.045 811.902L954.259 800.818ZM953.474 789.735L964.557 788.95L965.343 800.033L954.259 800.818L953.474 789.735ZM952.689 778.652L963.772 777.866L964.557 788.95L953.474 789.735L952.689 778.652ZM973.285 754.914L984.368 754.129L985.153 765.212L974.07 765.998L973.285 754.914ZM984.368 754.129L995.451 753.344L996.237 764.427L985.153 765.212L984.368 754.129ZM983.583 743.046L994.666 742.26L995.451 753.344L984.368 754.129L983.583 743.046ZM972.499 743.831L983.583 743.046L984.368 754.129L973.285 754.914L972.499 743.831ZM974.07 765.998L985.153 765.212L985.939 776.296L974.855 777.081L974.07 765.998ZM985.153 765.212L996.237 764.427L997.022 775.51L985.939 776.296L985.153 765.212ZM995.451 753.344L1006.53 752.558L1007.32 763.642L996.237 764.427L995.451 753.344ZM994.666 742.26L1005.75 741.475L1006.53 752.558L995.451 753.344L994.666 742.26ZM982.797 731.963L993.88 731.177L994.666 742.26L983.583 743.046L982.797 731.963ZM993.88 731.177L1004.96 730.392L1005.75 741.475L994.666 742.26L993.88 731.177ZM1005.75 741.475L1016.83 740.69L1017.62 751.773L1006.53 752.558L1005.75 741.475ZM1004.96 730.392L1016.05 729.606L1016.83 740.69L1005.75 741.475L1004.96 730.392ZM1004.18 719.308L1015.26 718.523L1016.05 729.606L1004.96 730.392L1004.18 719.308ZM1015.26 718.523L1026.35 717.738L1027.13 728.821L1016.05 729.606L1015.26 718.523ZM1014.48 707.44L1025.56 706.654L1026.35 717.738L1015.26 718.523L1014.48 707.44ZM1003.39 708.225L1014.48 707.44L1015.26 718.523L1004.18 719.308L1003.39 708.225ZM1002.61 697.142L1013.69 696.356L1014.48 707.44L1003.39 708.225L1002.61 697.142ZM991.524 697.927L1002.61 697.142L1003.39 708.225L992.31 709.011L991.524 697.927ZM992.31 709.011L1003.39 708.225L1004.18 719.308L993.095 720.094L992.31 709.011ZM993.095 720.094L1004.18 719.308L1004.96 730.392L993.88 731.177L993.095 720.094ZM1013.69 696.356L1024.77 695.571L1025.56 706.654L1014.48 707.44L1013.69 696.356ZM1016.05 729.606L1027.13 728.821L1027.92 739.904L1016.83 740.69L1016.05 729.606ZM1007.32 763.642L1018.4 762.856L1019.19 773.94L1008.11 774.725L1007.32 763.642ZM996.237 764.427L1007.32 763.642L1008.11 774.725L997.022 775.51L996.237 764.427ZM985.939 776.296L997.022 775.51L997.807 786.594L986.724 787.379L985.939 776.296ZM997.022 775.51L1008.11 774.725L1008.89 785.808L997.807 786.594L997.022 775.51ZM1008.11 774.725L1019.19 773.94L1019.97 785.023L1008.89 785.808L1008.11 774.725ZM1019.19 773.94L1030.27 773.154L1031.06 784.238L1019.97 785.023L1019.19 773.94ZM1019.97 785.023L1031.06 784.238L1031.84 795.321L1020.76 796.106L1019.97 785.023ZM1020.76 796.106L1031.84 795.321L1032.63 806.404L1021.54 807.19L1020.76 796.106ZM1021.54 807.19L1032.63 806.404L1033.41 817.488L1022.33 818.273L1021.54 807.19ZM1010.46 807.975L1021.54 807.19L1022.33 818.273L1011.25 819.058L1010.46 807.975ZM1009.68 796.892L1020.76 796.106L1021.54 807.19L1010.46 807.975L1009.68 796.892ZM1008.89 785.808L1019.97 785.023L1020.76 796.106L1009.68 796.892L1008.89 785.808ZM998.593 797.677L1009.68 796.892L1010.46 807.975L999.378 808.76L998.593 797.677ZM999.378 808.76L1010.46 807.975L1011.25 819.058L1000.16 819.844L999.378 808.76ZM997.807 786.594L1008.89 785.808L1009.68 796.892L998.593 797.677L997.807 786.594ZM1068.46 647.92L1079.54 647.134L1080.33 658.218L1069.24 659.003L1068.46 647.92ZM1079.54 647.134L1090.63 646.349L1091.41 657.432L1080.33 658.218L1079.54 647.134ZM1090.63 646.349L1101.71 645.564L1102.49 656.647L1091.41 657.432L1090.63 646.349ZM1091.41 657.432L1102.49 656.647L1103.28 667.73L1092.2 668.516L1091.41 657.432ZM1092.2 668.516L1103.28 667.73L1104.06 678.814L1092.98 679.599L1092.2 668.516ZM1092.98 679.599L1104.06 678.814L1104.85 689.897L1093.77 690.682L1092.98 679.599ZM1093.77 690.682L1104.85 689.897L1105.64 700.98L1094.55 701.766L1093.77 690.682ZM1083.47 702.551L1094.55 701.766L1095.34 712.849L1084.25 713.634L1083.47 702.551ZM1084.25 713.634L1095.34 712.849L1096.12 723.932L1085.04 724.718L1084.25 713.634ZM1072.39 703.336L1083.47 702.551L1084.25 713.634L1073.17 714.42L1072.39 703.336ZM1071.6 692.253L1082.68 691.468L1083.47 702.551L1072.39 703.336L1071.6 692.253ZM1070.81 681.17L1081.9 680.384L1082.68 691.468L1071.6 692.253L1070.81 681.17ZM1070.03 670.086L1081.11 669.301L1081.9 680.384L1070.81 681.17L1070.03 670.086ZM1069.24 659.003L1080.33 658.218L1081.11 669.301L1070.03 670.086L1069.24 659.003ZM1080.33 658.218L1091.41 657.432L1092.2 668.516L1081.11 669.301L1080.33 658.218ZM1081.11 669.301L1092.2 668.516L1092.98 679.599L1081.9 680.384L1081.11 669.301ZM1081.9 680.384L1092.98 679.599L1093.77 690.682L1082.68 691.468L1081.9 680.384ZM1082.68 691.468L1093.77 690.682L1094.55 701.766L1083.47 702.551L1082.68 691.468ZM1085.04 724.718L1096.12 723.932L1096.91 735.016L1085.82 735.801L1085.04 724.718ZM1073.96 725.503L1085.04 724.718L1085.82 735.801L1074.74 736.586L1073.96 725.503ZM1074.74 736.586L1085.82 735.801L1086.61 746.884L1075.53 747.67L1074.74 736.586ZM1073.17 714.42L1084.25 713.634L1085.04 724.718L1073.96 725.503L1073.17 714.42ZM1075.53 747.67L1086.61 746.884L1087.4 757.968L1076.31 758.753L1075.53 747.67ZM1076.31 758.753L1087.4 757.968L1088.18 769.051L1077.1 769.836L1076.31 758.753ZM1077.1 769.836L1088.18 769.051L1088.97 780.134L1077.88 780.92L1077.1 769.836ZM1077.88 780.92L1088.97 780.134L1089.75 791.218L1078.67 792.003L1077.88 780.92ZM1078.67 792.003L1089.75 791.218L1090.54 802.301L1079.45 803.086L1078.67 792.003ZM1089.75 791.218L1100.83 790.432L1101.62 801.516L1090.54 802.301L1089.75 791.218ZM1100.83 790.432L1111.92 789.647L1112.7 800.73L1101.62 801.516L1100.83 790.432ZM1101.62 801.516L1112.7 800.73L1113.49 811.814L1102.41 812.599L1101.62 801.516ZM1090.54 802.301L1101.62 801.516L1102.41 812.599L1091.32 813.384L1090.54 802.301ZM1079.45 803.086L1090.54 802.301L1091.32 813.384L1080.24 814.17L1079.45 803.086ZM1100.05 779.349L1111.13 778.564L1111.92 789.647L1100.83 790.432L1100.05 779.349ZM1099.26 768.266L1110.35 767.48L1111.13 778.564L1100.05 779.349L1099.26 768.266ZM1098.48 757.182L1109.56 756.397L1110.35 767.48L1099.26 768.266L1098.48 757.182ZM1097.69 746.099L1108.78 745.314L1109.56 756.397L1098.48 757.182L1097.69 746.099ZM1096.91 735.016L1107.99 734.23L1108.78 745.314L1097.69 746.099L1096.91 735.016ZM1096.12 723.932L1107.21 723.147L1107.99 734.23L1096.91 735.016L1096.12 723.932ZM1095.34 712.849L1106.42 712.064L1107.21 723.147L1096.12 723.932L1095.34 712.849ZM1094.55 701.766L1105.64 700.98L1106.42 712.064L1095.34 712.849L1094.55 701.766ZM1085.82 735.801L1096.91 735.016L1097.69 746.099L1086.61 746.884L1085.82 735.801ZM1087.4 757.968L1098.48 757.182L1099.26 768.266L1088.18 769.051L1087.4 757.968ZM1088.18 769.051L1099.26 768.266L1100.05 779.349L1088.97 780.134L1088.18 769.051ZM1088.97 780.134L1100.05 779.349L1100.83 790.432L1089.75 791.218L1088.97 780.134ZM1086.61 746.884L1097.69 746.099L1098.48 757.182L1087.4 757.968L1086.61 746.884ZM1157.04 797.589L1168.12 796.803L1168.91 807.887L1157.82 808.672L1157.04 797.589ZM1168.12 796.803L1179.2 796.018L1179.99 807.101L1168.91 807.887L1168.12 796.803ZM1167.33 785.72L1178.42 784.935L1179.2 796.018L1168.12 796.803L1167.33 785.72ZM1166.55 774.637L1177.63 773.851L1178.42 784.935L1167.33 785.72L1166.55 774.637ZM1165.76 763.554L1176.85 762.768L1177.63 773.851L1166.55 774.637L1165.76 763.554ZM1176.85 762.768L1187.93 761.983L1188.72 773.066L1177.63 773.851L1176.85 762.768ZM1176.06 751.685L1187.15 750.899L1187.93 761.983L1176.85 762.768L1176.06 751.685ZM1177.63 773.851L1188.72 773.066L1189.5 784.149L1178.42 784.935L1177.63 773.851ZM1178.42 784.935L1189.5 784.149L1190.29 795.233L1179.2 796.018L1178.42 784.935ZM1179.2 796.018L1190.29 795.233L1191.07 806.316L1179.99 807.101L1179.2 796.018ZM1156.25 786.506L1167.33 785.72L1168.12 796.803L1157.04 797.589L1156.25 786.506ZM1155.47 775.422L1166.55 774.637L1167.33 785.72L1156.25 786.506L1155.47 775.422ZM1154.68 764.339L1165.76 763.554L1166.55 774.637L1155.47 775.422L1154.68 764.339ZM1153.9 753.256L1164.98 752.47L1165.76 763.554L1154.68 764.339L1153.9 753.256ZM1153.11 742.172L1164.19 741.387L1164.98 752.47L1153.9 753.256L1153.11 742.172ZM1152.32 731.089L1163.41 730.304L1164.19 741.387L1153.11 742.172L1152.32 731.089ZM1151.54 720.006L1162.62 719.22L1163.41 730.304L1152.32 731.089L1151.54 720.006ZM1150.75 708.922L1161.84 708.137L1162.62 719.22L1151.54 720.006L1150.75 708.922ZM1149.97 697.839L1161.05 697.054L1161.84 708.137L1150.75 708.922L1149.97 697.839ZM1138.89 698.624L1149.97 697.839L1150.75 708.922L1139.67 709.708L1138.89 698.624ZM1127.8 699.41L1138.89 698.624L1139.67 709.708L1128.59 710.493L1127.8 699.41ZM1161.84 708.137L1172.92 707.352L1173.71 718.435L1162.62 719.22L1161.84 708.137ZM1162.62 719.22L1173.71 718.435L1174.49 729.518L1163.41 730.304L1162.62 719.22ZM1163.41 730.304L1174.49 729.518L1175.28 740.602L1164.19 741.387L1163.41 730.304ZM1164.19 741.387L1175.28 740.602L1176.06 751.685L1164.98 752.47L1164.19 741.387ZM1164.98 752.47L1176.06 751.685L1176.85 762.768L1165.76 763.554L1164.98 752.47ZM1175.28 740.602L1186.36 739.816L1187.15 750.899L1176.06 751.685L1175.28 740.602ZM1174.49 729.518L1185.57 728.733L1186.36 739.816L1175.28 740.602L1174.49 729.518ZM1173.71 718.435L1184.79 717.65L1185.57 728.733L1174.49 729.518L1173.71 718.435ZM1172.92 707.352L1184 706.566L1184.79 717.65L1173.71 718.435L1172.92 707.352ZM1161.05 697.054L1172.14 696.268L1172.92 707.352L1161.84 708.137L1161.05 697.054ZM1149.18 686.756L1160.27 685.97L1161.05 697.054L1149.97 697.839L1149.18 686.756ZM1138.1 687.541L1149.18 686.756L1149.97 697.839L1138.89 698.624L1138.1 687.541ZM1127.02 688.326L1138.1 687.541L1138.89 698.624L1127.8 699.41L1127.02 688.326ZM1115.93 689.112L1127.02 688.326L1127.8 699.41L1116.72 700.195L1115.93 689.112ZM1116.72 700.195L1127.8 699.41L1128.59 710.493L1117.5 711.278L1116.72 700.195ZM1105.64 700.98L1116.72 700.195L1117.5 711.278L1106.42 712.064L1105.64 700.98ZM1106.42 712.064L1117.5 711.278L1118.29 722.362L1107.21 723.147L1106.42 712.064ZM1117.5 711.278L1128.59 710.493L1129.37 721.576L1118.29 722.362L1117.5 711.278ZM1128.59 710.493L1139.67 709.708L1140.46 720.791L1129.37 721.576L1128.59 710.493ZM1139.67 709.708L1150.75 708.922L1151.54 720.006L1140.46 720.791L1139.67 709.708ZM1107.21 723.147L1118.29 722.362L1119.07 733.445L1107.99 734.23L1107.21 723.147ZM1205.79 682.745L1216.87 681.959L1217.66 693.043L1206.57 693.828L1205.79 682.745ZM1216.87 681.959L1227.95 681.174L1228.74 692.257L1217.66 693.043L1216.87 681.959ZM1227.95 681.174L1239.04 680.389L1239.82 691.472L1228.74 692.257L1227.95 681.174ZM1239.04 680.389L1250.12 679.603L1250.91 690.687L1239.82 691.472L1239.04 680.389ZM1250.12 679.603L1261.2 678.818L1261.99 689.901L1250.91 690.687L1250.12 679.603ZM1261.2 678.818L1272.29 678.033L1273.07 689.116L1261.99 689.901L1261.2 678.818ZM1273.07 689.116L1284.16 688.331L1284.94 699.414L1273.86 700.199L1273.07 689.116ZM1261.99 689.901L1273.07 689.116L1273.86 700.199L1262.77 700.985L1261.99 689.901ZM1250.91 690.687L1261.99 689.901L1262.77 700.985L1251.69 701.77L1250.91 690.687ZM1239.82 691.472L1250.91 690.687L1251.69 701.77L1240.61 702.555L1239.82 691.472ZM1228.74 692.257L1239.82 691.472L1240.61 702.555L1229.52 703.341L1228.74 692.257ZM1217.66 693.043L1228.74 692.257L1229.52 703.341L1218.44 704.126L1217.66 693.043ZM1206.57 693.828L1217.66 693.043L1218.44 704.126L1207.36 704.911L1206.57 693.828ZM1195.49 694.613L1206.57 693.828L1207.36 704.911L1196.27 705.697L1195.49 694.613ZM1196.27 705.697L1207.36 704.911L1208.14 715.995L1197.06 716.78L1196.27 705.697ZM1207.36 704.911L1218.44 704.126L1219.23 715.209L1208.14 715.995L1207.36 704.911ZM1185.19 706.482L1196.27 705.697L1197.06 716.78L1185.98 717.565L1185.19 706.482ZM1185.98 717.565L1197.06 716.78L1197.84 727.863L1186.76 728.649L1185.98 717.565ZM1186.76 728.649L1197.84 727.863L1198.63 738.947L1187.55 739.732L1186.76 728.649ZM1197.84 727.863L1208.93 727.078L1209.71 738.161L1198.63 738.947L1197.84 727.863ZM1208.93 727.078L1220.01 726.293L1220.8 737.376L1209.71 738.161L1208.93 727.078ZM1208.14 715.995L1219.23 715.209L1220.01 726.293L1208.93 727.078L1208.14 715.995ZM1197.06 716.78L1208.14 715.995L1208.93 727.078L1197.84 727.863L1197.06 716.78ZM1198.63 738.947L1209.71 738.161L1210.5 749.245L1199.42 750.03L1198.63 738.947ZM1199.42 750.03L1210.5 749.245L1211.28 760.328L1200.2 761.113L1199.42 750.03ZM1200.2 761.113L1211.28 760.328L1212.07 771.411L1200.99 772.197L1200.2 761.113ZM1189.12 761.899L1200.2 761.113L1200.99 772.197L1189.9 772.982L1189.12 761.899ZM1189.9 772.982L1200.99 772.197L1201.77 783.28L1190.69 784.065L1189.9 772.982ZM1188.33 750.815L1199.42 750.03L1200.2 761.113L1189.12 761.899L1188.33 750.815ZM1187.55 739.732L1198.63 738.947L1199.42 750.03L1188.33 750.815L1187.55 739.732ZM1209.71 738.161L1220.8 737.376L1221.58 748.459L1210.5 749.245L1209.71 738.161ZM1210.5 749.245L1221.58 748.459L1222.37 759.543L1211.28 760.328L1210.5 749.245ZM1211.28 760.328L1222.37 759.543L1223.15 770.626L1212.07 771.411L1211.28 760.328ZM1212.07 771.411L1223.15 770.626L1223.94 781.709L1212.85 782.495L1212.07 771.411ZM1200.99 772.197L1212.07 771.411L1212.85 782.495L1201.77 783.28L1200.99 772.197ZM1201.77 783.28L1212.85 782.495L1213.64 793.578L1202.56 794.363L1201.77 783.28ZM1212.85 782.495L1223.94 781.709L1224.72 792.793L1213.64 793.578L1212.85 782.495ZM1223.94 781.709L1235.02 780.924L1235.81 792.007L1224.72 792.793L1223.94 781.709ZM1223.15 770.626L1234.24 769.841L1235.02 780.924L1223.94 781.709L1223.15 770.626ZM1213.64 793.578L1224.72 792.793L1225.51 803.876L1214.43 804.661L1213.64 793.578ZM1224.72 792.793L1235.81 792.007L1236.59 803.091L1225.51 803.876L1224.72 792.793ZM1235.81 792.007L1246.89 791.222L1247.68 802.305L1236.59 803.091L1235.81 792.007ZM1246.89 791.222L1257.97 790.437L1258.76 801.52L1247.68 802.305L1246.89 791.222ZM1257.97 790.437L1269.06 789.651L1269.84 800.735L1258.76 801.52L1257.97 790.437ZM1269.06 789.651L1280.14 788.866L1280.93 799.949L1269.84 800.735L1269.06 789.651ZM1257.19 779.353L1268.27 778.568L1269.06 789.651L1257.97 790.437L1257.19 779.353ZM1246.1 780.139L1257.19 779.353L1257.97 790.437L1246.89 791.222L1246.1 780.139ZM1235.02 780.924L1246.1 780.139L1246.89 791.222L1235.81 792.007L1235.02 780.924ZM1268.27 778.568L1279.35 777.783L1280.14 788.866L1269.06 789.651L1268.27 778.568ZM1279.35 777.783L1290.44 776.997L1291.22 788.081L1280.14 788.866L1279.35 777.783ZM1267.49 767.485L1278.57 766.699L1279.35 777.783L1268.27 778.568L1267.49 767.485ZM1256.4 768.27L1267.49 767.485L1268.27 778.568L1257.19 779.353L1256.4 768.27ZM1278.57 766.699L1289.65 765.914L1290.44 776.997L1279.35 777.783L1278.57 766.699ZM1289.65 765.914L1300.74 765.129L1301.52 776.212L1290.44 776.997L1289.65 765.914ZM1274.64 711.283L1285.73 710.497L1286.51 721.581L1275.43 722.366L1274.64 711.283ZM1285.73 710.497L1296.81 709.712L1297.59 720.795L1286.51 721.581L1285.73 710.497ZM1284.94 699.414L1296.02 698.629L1296.81 709.712L1285.73 710.497L1284.94 699.414ZM1263.56 712.068L1274.64 711.283L1275.43 722.366L1264.34 723.151L1263.56 712.068ZM1262.77 700.985L1273.86 700.199L1274.64 711.283L1263.56 712.068L1262.77 700.985ZM1273.86 700.199L1284.94 699.414L1285.73 710.497L1274.64 711.283L1273.86 700.199ZM1234.24 769.841L1245.32 769.055L1246.1 780.139L1235.02 780.924L1234.24 769.841ZM1245.32 769.055L1256.4 768.27L1257.19 779.353L1246.1 780.139L1245.32 769.055ZM1286.51 721.581L1297.59 720.795L1298.38 731.879L1287.3 732.664L1286.51 721.581ZM1275.43 722.366L1286.51 721.581L1287.3 732.664L1276.21 733.449L1275.43 722.366ZM1264.34 723.151L1275.43 722.366L1276.21 733.449L1265.13 734.235L1264.34 723.151ZM1231.88 736.591L1242.96 735.805L1243.75 746.889L1232.67 747.674L1231.88 736.591ZM1242.96 735.805L1254.05 735.02L1254.83 746.103L1243.75 746.889L1242.96 735.805ZM1254.05 735.02L1265.13 734.235L1265.92 745.318L1254.83 746.103L1254.05 735.02ZM1265.13 734.235L1276.21 733.449L1277 744.533L1265.92 745.318L1265.13 734.235ZM1276.21 733.449L1287.3 732.664L1288.08 743.747L1277 744.533L1276.21 733.449ZM1287.3 732.664L1298.38 731.879L1299.17 742.962L1288.08 743.747L1287.3 732.664ZM1220.8 737.376L1231.88 736.591L1232.67 747.674L1221.58 748.459L1220.8 737.376ZM1218.44 704.126L1229.52 703.341L1230.31 714.424L1219.23 715.209L1218.44 704.126ZM1229.52 703.341L1240.61 702.555L1241.39 713.639L1230.31 714.424L1229.52 703.341ZM1240.61 702.555L1251.69 701.77L1252.48 712.853L1241.39 713.639L1240.61 702.555ZM1251.69 701.77L1262.77 700.985L1263.56 712.068L1252.48 712.853L1251.69 701.77ZM1288.08 743.747L1299.17 742.962L1299.95 754.045L1288.87 754.831L1288.08 743.747ZM1277 744.533L1288.08 743.747L1288.87 754.831L1277.78 755.616L1277 744.533ZM1254.83 746.103L1265.92 745.318L1266.7 756.401L1255.62 757.187L1254.83 746.103ZM1243.75 746.889L1254.83 746.103L1255.62 757.187L1244.53 757.972L1243.75 746.889ZM1232.67 747.674L1243.75 746.889L1244.53 757.972L1233.45 758.757L1232.67 747.674ZM1221.58 748.459L1232.67 747.674L1233.45 758.757L1222.37 759.543L1221.58 748.459ZM1265.92 745.318L1277 744.533L1277.78 755.616L1266.7 756.401L1265.92 745.318ZM1317.81 674.807L1328.89 674.022L1329.68 685.105L1318.59 685.89L1317.81 674.807ZM1307.51 686.676L1318.59 685.89L1319.38 696.974L1308.29 697.759L1307.51 686.676ZM1308.29 697.759L1319.38 696.974L1320.16 708.057L1309.08 708.842L1308.29 697.759ZM1296.43 687.461L1307.51 686.676L1308.29 697.759L1297.21 698.545L1296.43 687.461ZM1295.64 676.378L1306.72 675.593L1307.51 686.676L1296.43 687.461L1295.64 676.378ZM1306.72 675.593L1317.81 674.807L1318.59 685.89L1307.51 686.676L1306.72 675.593ZM1309.08 708.842L1320.16 708.057L1320.95 719.14L1309.86 719.926L1309.08 708.842ZM1298 709.628L1309.08 708.842L1309.86 719.926L1298.78 720.711L1298 709.628ZM1298.78 720.711L1309.86 719.926L1310.65 731.009L1299.57 731.794L1298.78 720.711ZM1297.21 698.545L1308.29 697.759L1309.08 708.842L1298 709.628L1297.21 698.545ZM1299.57 731.794L1310.65 731.009L1311.44 742.092L1300.35 742.878L1299.57 731.794ZM1300.35 742.878L1311.44 742.092L1312.22 753.176L1301.14 753.961L1300.35 742.878ZM1301.14 753.961L1312.22 753.176L1313.01 764.259L1301.92 765.044L1301.14 753.961ZM1301.92 765.044L1313.01 764.259L1313.79 775.342L1302.71 776.128L1301.92 765.044ZM1302.71 776.128L1313.79 775.342L1314.58 786.426L1303.49 787.211L1302.71 776.128ZM1313.79 775.342L1324.87 774.557L1325.66 785.64L1314.58 786.426L1313.79 775.342ZM1324.87 774.557L1335.96 773.772L1336.74 784.855L1325.66 785.64L1324.87 774.557ZM1325.66 785.64L1336.74 784.855L1337.53 795.938L1326.45 796.724L1325.66 785.64ZM1314.58 786.426L1325.66 785.64L1326.45 796.724L1315.36 797.509L1314.58 786.426ZM1303.49 787.211L1314.58 786.426L1315.36 797.509L1304.28 798.294L1303.49 787.211ZM1324.09 763.474L1335.17 762.688L1335.96 773.772L1324.87 774.557L1324.09 763.474ZM1323.3 752.39L1334.39 751.605L1335.17 762.688L1324.09 763.474L1323.3 752.39ZM1322.52 741.307L1333.6 740.522L1334.39 751.605L1323.3 752.39L1322.52 741.307ZM1321.73 730.224L1332.82 729.438L1333.6 740.522L1322.52 741.307L1321.73 730.224ZM1320.95 719.14L1332.03 718.355L1332.82 729.438L1321.73 730.224L1320.95 719.14ZM1320.16 708.057L1331.25 707.272L1332.03 718.355L1320.95 719.14L1320.16 708.057ZM1319.38 696.974L1330.46 696.188L1331.25 707.272L1320.16 708.057L1319.38 696.974ZM1318.59 685.89L1329.68 685.105L1330.46 696.188L1319.38 696.974L1318.59 685.89ZM1309.86 719.926L1320.95 719.14L1321.73 730.224L1310.65 731.009L1309.86 719.926ZM1311.44 742.092L1322.52 741.307L1323.3 752.39L1312.22 753.176L1311.44 742.092ZM1312.22 753.176L1323.3 752.39L1324.09 763.474L1313.01 764.259L1312.22 753.176ZM1313.01 764.259L1324.09 763.474L1324.87 774.557L1313.79 775.342L1313.01 764.259ZM1310.65 731.009L1321.73 730.224L1322.52 741.307L1311.44 742.092L1310.65 731.009ZM1374.79 693.047L1385.88 692.262L1386.66 703.345L1375.58 704.13L1374.79 693.047ZM1374.01 681.964L1385.09 681.178L1385.88 692.262L1374.79 693.047L1374.01 681.964ZM1362.93 682.749L1374.01 681.964L1374.79 693.047L1363.71 693.832L1362.93 682.749ZM1351.84 683.534L1362.93 682.749L1363.71 693.832L1352.63 694.618L1351.84 683.534ZM1385.09 681.178L1396.18 680.393L1396.96 691.476L1385.88 692.262L1385.09 681.178ZM1373.22 670.88L1384.31 670.095L1385.09 681.178L1374.01 681.964L1373.22 670.88ZM1362.14 671.666L1373.22 670.88L1374.01 681.964L1362.93 682.749L1362.14 671.666ZM1351.06 672.451L1362.14 671.666L1362.93 682.749L1351.84 683.534L1351.06 672.451ZM1339.97 673.236L1351.06 672.451L1351.84 683.534L1340.76 684.32L1339.97 673.236ZM1340.76 684.32L1351.84 683.534L1352.63 694.618L1341.54 695.403L1340.76 684.32ZM1329.68 685.105L1340.76 684.32L1341.54 695.403L1330.46 696.188L1329.68 685.105ZM1330.46 696.188L1341.54 695.403L1342.33 706.486L1331.25 707.272L1330.46 696.188ZM1363.71 693.832L1374.79 693.047L1375.58 704.13L1364.5 704.916L1363.71 693.832ZM1364.5 704.916L1375.58 704.13L1376.36 715.214L1365.28 715.999L1364.5 704.916ZM1352.63 694.618L1363.71 693.832L1364.5 704.916L1353.41 705.701L1352.63 694.618ZM1341.54 695.403L1352.63 694.618L1353.41 705.701L1342.33 706.486L1341.54 695.403ZM1331.25 707.272L1342.33 706.486L1343.11 717.57L1332.03 718.355L1331.25 707.272ZM1407.62 668.443L1418.7 667.658L1419.49 678.741L1408.4 679.527L1407.62 668.443ZM1418.7 667.658L1429.78 666.873L1430.57 677.956L1419.49 678.741L1418.7 667.658ZM1429.78 666.873L1440.87 666.087L1441.65 677.171L1430.57 677.956L1429.78 666.873ZM1440.87 666.087L1451.95 665.302L1452.74 676.385L1441.65 677.171L1440.87 666.087ZM1451.95 665.302L1463.03 664.517L1463.82 675.6L1452.74 676.385L1451.95 665.302ZM1463.03 664.517L1474.12 663.731L1474.9 674.815L1463.82 675.6L1463.03 664.517ZM1474.9 674.815L1485.99 674.029L1486.77 685.112L1475.69 685.898L1474.9 674.815ZM1463.82 675.6L1474.9 674.815L1475.69 685.898L1464.6 686.683L1463.82 675.6ZM1452.74 676.385L1463.82 675.6L1464.6 686.683L1453.52 687.469L1452.74 676.385ZM1441.65 677.171L1452.74 676.385L1453.52 687.469L1442.44 688.254L1441.65 677.171ZM1430.57 677.956L1441.65 677.171L1442.44 688.254L1431.35 689.039L1430.57 677.956ZM1419.49 678.741L1430.57 677.956L1431.35 689.039L1420.27 689.825L1419.49 678.741ZM1408.4 679.527L1419.49 678.741L1420.27 689.825L1409.19 690.61L1408.4 679.527ZM1397.32 680.312L1408.4 679.527L1409.19 690.61L1398.1 691.395L1397.32 680.312ZM1398.1 691.395L1409.19 690.61L1409.97 701.693L1398.89 702.479L1398.1 691.395ZM1409.19 690.61L1420.27 689.825L1421.06 700.908L1409.97 701.693L1409.19 690.61ZM1387.02 692.181L1398.1 691.395L1398.89 702.479L1387.81 703.264L1387.02 692.181ZM1387.81 703.264L1398.89 702.479L1399.67 713.562L1388.59 714.347L1387.81 703.264ZM1388.59 714.347L1399.67 713.562L1400.46 724.645L1389.38 725.431L1388.59 714.347ZM1399.67 713.562L1410.76 712.777L1411.54 723.86L1400.46 724.645L1399.67 713.562ZM1410.76 712.777L1421.84 711.991L1422.63 723.075L1411.54 723.86L1410.76 712.777ZM1409.97 701.693L1421.06 700.908L1421.84 711.991L1410.76 712.777L1409.97 701.693ZM1398.89 702.479L1409.97 701.693L1410.76 712.777L1399.67 713.562L1398.89 702.479ZM1400.46 724.645L1411.54 723.86L1412.33 734.943L1401.25 735.729L1400.46 724.645ZM1401.25 735.729L1412.33 734.943L1413.11 746.027L1402.03 746.812L1401.25 735.729ZM1402.03 746.812L1413.11 746.027L1413.9 757.11L1402.82 757.895L1402.03 746.812ZM1390.95 747.597L1402.03 746.812L1402.82 757.895L1391.73 758.681L1390.95 747.597ZM1391.73 758.681L1402.82 757.895L1403.6 768.979L1392.52 769.764L1391.73 758.681ZM1390.16 736.514L1401.25 735.729L1402.03 746.812L1390.95 747.597L1390.16 736.514ZM1389.38 725.431L1400.46 724.645L1401.25 735.729L1390.16 736.514L1389.38 725.431ZM1411.54 723.86L1422.63 723.075L1423.41 734.158L1412.33 734.943L1411.54 723.86ZM1412.33 734.943L1423.41 734.158L1424.2 745.241L1413.11 746.027L1412.33 734.943ZM1413.11 746.027L1424.2 745.241L1424.98 756.325L1413.9 757.11L1413.11 746.027ZM1413.9 757.11L1424.98 756.325L1425.77 767.408L1414.68 768.193L1413.9 757.11ZM1402.82 757.895L1413.9 757.11L1414.68 768.193L1403.6 768.979L1402.82 757.895ZM1403.6 768.979L1414.68 768.193L1415.47 779.277L1404.39 780.062L1403.6 768.979ZM1414.68 768.193L1425.77 767.408L1426.55 778.491L1415.47 779.277L1414.68 768.193ZM1425.77 767.408L1436.85 766.622L1437.64 777.706L1426.55 778.491L1425.77 767.408ZM1424.98 756.325L1436.07 755.539L1436.85 766.622L1425.77 767.408L1424.98 756.325ZM1415.47 779.277L1426.55 778.491L1427.34 789.574L1416.26 790.36L1415.47 779.277ZM1426.55 778.491L1437.64 777.706L1438.42 788.789L1427.34 789.574L1426.55 778.491ZM1437.64 777.706L1448.72 776.92L1449.51 788.004L1438.42 788.789L1437.64 777.706ZM1448.72 776.92L1459.8 776.135L1460.59 787.218L1449.51 788.004L1448.72 776.92ZM1459.8 776.135L1470.89 775.35L1471.67 786.433L1460.59 787.218L1459.8 776.135ZM1470.89 775.35L1481.97 774.564L1482.76 785.648L1471.67 786.433L1470.89 775.35ZM1459.02 765.052L1470.1 764.266L1470.89 775.35L1459.8 776.135L1459.02 765.052ZM1447.93 765.837L1459.02 765.052L1459.8 776.135L1448.72 776.92L1447.93 765.837ZM1436.85 766.622L1447.93 765.837L1448.72 776.92L1437.64 777.706L1436.85 766.622ZM1470.1 764.266L1481.18 763.481L1481.97 774.564L1470.89 775.35L1470.1 764.266ZM1481.18 763.481L1492.27 762.696L1493.05 773.779L1481.97 774.564L1481.18 763.481ZM1469.32 753.183L1480.4 752.398L1481.18 763.481L1470.1 764.266L1469.32 753.183ZM1458.23 753.968L1469.32 753.183L1470.1 764.266L1459.02 765.052L1458.23 753.968ZM1480.4 752.398L1491.48 751.612L1492.27 762.696L1481.18 763.481L1480.4 752.398ZM1491.48 751.612L1502.57 750.827L1503.35 761.91L1492.27 762.696L1491.48 751.612ZM1476.47 696.981L1487.56 696.196L1488.34 707.279L1477.26 708.064L1476.47 696.981ZM1487.56 696.196L1498.64 695.41L1499.42 706.494L1488.34 707.279L1487.56 696.196ZM1486.77 685.112L1497.85 684.327L1498.64 695.41L1487.56 696.196L1486.77 685.112ZM1465.39 697.767L1476.47 696.981L1477.26 708.064L1466.17 708.85L1465.39 697.767ZM1464.6 686.683L1475.69 685.898L1476.47 696.981L1465.39 697.767L1464.6 686.683ZM1475.69 685.898L1486.77 685.112L1487.56 696.196L1476.47 696.981L1475.69 685.898ZM1436.07 755.539L1447.15 754.754L1447.93 765.837L1436.85 766.622L1436.07 755.539ZM1447.15 754.754L1458.23 753.968L1459.02 765.052L1447.93 765.837L1447.15 754.754ZM1488.34 707.279L1499.42 706.494L1500.21 717.577L1489.13 718.362L1488.34 707.279ZM1477.26 708.064L1488.34 707.279L1489.13 718.362L1478.04 719.148L1477.26 708.064ZM1466.17 708.85L1477.26 708.064L1478.04 719.148L1466.96 719.933L1466.17 708.85ZM1433.71 722.289L1444.79 721.504L1445.58 732.587L1434.5 733.373L1433.71 722.289ZM1444.79 721.504L1455.88 720.719L1456.66 731.802L1445.58 732.587L1444.79 721.504ZM1455.88 720.719L1466.96 719.933L1467.75 731.016L1456.66 731.802L1455.88 720.719ZM1466.96 719.933L1478.04 719.148L1478.83 730.231L1467.75 731.016L1466.96 719.933ZM1478.04 719.148L1489.13 718.362L1489.91 729.446L1478.83 730.231L1478.04 719.148ZM1489.13 718.362L1500.21 717.577L1501 728.66L1489.91 729.446L1489.13 718.362ZM1422.63 723.075L1433.71 722.289L1434.5 733.373L1423.41 734.158L1422.63 723.075ZM1420.27 689.825L1431.35 689.039L1432.14 700.123L1421.06 700.908L1420.27 689.825ZM1431.35 689.039L1442.44 688.254L1443.22 699.337L1432.14 700.123L1431.35 689.039ZM1442.44 688.254L1453.52 687.469L1454.31 698.552L1443.22 699.337L1442.44 688.254ZM1453.52 687.469L1464.6 686.683L1465.39 697.767L1454.31 698.552L1453.52 687.469ZM1489.91 729.446L1501 728.66L1501.78 739.744L1490.7 740.529L1489.91 729.446ZM1478.83 730.231L1489.91 729.446L1490.7 740.529L1479.61 741.314L1478.83 730.231ZM1456.66 731.802L1467.75 731.016L1468.53 742.1L1457.45 742.885L1456.66 731.802ZM1445.58 732.587L1456.66 731.802L1457.45 742.885L1446.36 743.671L1445.58 732.587ZM1434.5 733.373L1445.58 732.587L1446.36 743.671L1435.28 744.456L1434.5 733.373ZM1423.41 734.158L1434.5 733.373L1435.28 744.456L1424.2 745.241L1423.41 734.158ZM1467.75 731.016L1478.83 730.231L1479.61 741.314L1468.53 742.1L1467.75 731.016Z" fill="#101217"/>
<g filter="url(#filter1_g_1188_89)">
<path d="M616.352 1080.06C717.976 1169.09 1372.05 986.487 1450.07 970.961C1528.08 955.434 1551.97 946.369 1575.8 934.48C1623.61 910.627 1656.15 883.989 1672.28 868.058C1698.59 842.066 1713.4 785.382 1715.58 747.909C1716.71 728.48 1708.53 708.721 1697.38 683.543C1682.13 649.094 1654.53 613.547 1615.79 572.622C1592.93 548.476 1559.34 522.376 1516.25 495.048C1473.16 467.719 1420.51 441.205 1373.8 422.358C1327.1 403.51 1287.93 393.131 1229.33 390.219C1170.74 387.308 1093.89 392.177 1031.13 400.961C968.382 409.745 922.051 422.297 880.94 436.492C839.83 450.687 805.342 466.146 744.021 501.026C682.7 535.907 595.59 589.741 545.634 621.394C484.997 659.815 465.257 683.214 449.244 707.383C430.888 735.088 426.194 766.299 435.169 813.151C438.163 828.782 447.135 843.75 457.554 858.672C467.974 873.595 505.432 943.132 573.92 980.1C642.408 1017.07 932.038 1191.39 1049.34 1163.77" stroke="#5C9FF8" stroke-width="60" stroke-linecap="round"/>
</g>
<defs>
<filter id="filter0_g_1188_89" x="0.498047" y="-0.0090332" width="891.011" height="617.078" filterUnits="userSpaceOnUse" color-interpolation-filters="sRGB">
<feFlood flood-opacity="0" result="BackgroundImageFix"/>
<feBlend mode="normal" in="SourceGraphic" in2="BackgroundImageFix" result="shape"/>
<feTurbulence type="fractalNoise" baseFrequency="0.05000000074505806 0.05000000074505806" numOctaves="3" seed="7757" />
<feDisplacementMap in="shape" scale="20" xChannelSelector="R" yChannelSelector="G" result="displacedImage" width="100%" height="100%" />
<feMerge result="effect1_texture_1188_89">
<feMergeNode in="displacedImage"/>
</feMerge>
</filter>
<filter id="filter1_g_1188_89" x="390.758" y="349.375" width="1364.92" height="857.342" filterUnits="userSpaceOnUse" color-interpolation-filters="sRGB">
<feFlood flood-opacity="0" result="BackgroundImageFix"/>
<feBlend mode="normal" in="SourceGraphic" in2="BackgroundImageFix" result="shape"/>
<feTurbulence type="fractalNoise" baseFrequency="0.05000000074505806 0.05000000074505806" numOctaves="3" seed="3228" />
<feDisplacementMap in="shape" scale="20" xChannelSelector="R" yChannelSelector="G" result="displacedImage" width="100%" height="100%" />
<feMerge result="effect1_texture_1188_89">
<feMergeNode in="displacedImage"/>
</feMerge>
</filter>
</defs>
</svg>
