<svg width="756" height="311" viewBox="0 0 756 311" fill="none" xmlns="http://www.w3.org/2000/svg">
<path d="M8 215L97 9H198L263 70L433 162.5L535.5 300L656.5 255L749 139" stroke="#5C9FF8" stroke-width="17"/>
<path d="M131.1 269.6C117.5 269.6 105.7 266.2 95.6996 259.4C85.8996 252.4 78.2996 242.7 72.8996 230.3C67.6996 217.7 65.0996 202.8 65.0996 185.6C65.0996 168.4 67.7996 153.6 73.1996 141.2C78.5996 128.6 86.1996 118.9 95.9996 112.1C106 105.1 117.7 101.6 131.1 101.6C142.5 101.6 152.3 104 160.5 108.8C168.9 113.4 175.2 119.8 179.4 128V52.9999H224.4V266H181.5L180.6 242.3C176.2 250.9 169.6 257.6 160.8 262.4C152.2 267.2 142.3 269.6 131.1 269.6ZM145.8 235.1C153 235.1 159.1 233.2 164.1 229.4C169.1 225.6 172.9 220.1 175.5 212.9C178.1 205.5 179.4 196.4 179.4 185.6C179.4 174.6 178.1 165.5 175.5 158.3C172.9 150.9 169.1 145.4 164.1 141.8C159.1 138 153 136.1 145.8 136.1C135.2 136.1 126.8 140.6 120.6 149.6C114.4 158.4 111.3 170.4 111.3 185.6C111.3 200.6 114.4 212.6 120.6 221.6C127 230.6 135.4 235.1 145.8 235.1Z" fill="black"/>
<path d="M238.835 266V105.2H283.835V266H238.835ZM237.935 85.3999V49.3999H284.435V85.3999H261.185H237.935Z" fill="#5C9FF8"/>
<path d="M367.98 269.6C351.38 269.6 337.48 267.3 326.28 262.7C315.08 257.9 306.48 251.5 300.48 243.5C294.68 235.3 291.38 225.9 290.58 215.3L336.18 213.8C337.58 221.4 340.78 227.3 345.78 231.5C350.78 235.7 358.18 237.8 367.98 237.8C375.98 237.8 382.18 236.5 386.58 233.9C391.18 231.3 393.48 227.3 393.48 221.9C393.48 218.5 392.68 215.7 391.08 213.5C389.48 211.1 386.28 209.1 381.48 207.5C376.88 205.7 369.98 204.1 360.78 202.7C343.78 199.7 330.48 196.2 320.88 192.2C311.28 188.2 304.48 183 300.48 176.6C296.48 170.2 294.48 162.4 294.48 153.2C294.48 137.8 300.38 125.4 312.18 116C324.18 106.4 342.08 101.6 365.88 101.6C381.08 101.6 393.78 104 403.98 108.8C414.38 113.6 422.38 120.2 427.98 128.6C433.78 136.8 437.38 146.2 438.78 156.8L393.48 158.6C392.88 153.4 391.28 149 388.68 145.4C386.28 141.6 383.18 138.7 379.38 136.7C375.58 134.5 370.98 133.4 365.58 133.4C357.58 133.4 351.38 135.1 346.98 138.5C342.78 141.7 340.68 146 340.68 151.4C340.68 155.4 341.58 158.7 343.38 161.3C345.38 163.7 348.58 165.7 352.98 167.3C357.38 168.9 363.28 170.2 370.68 171.2C387.88 173.6 401.48 177 411.48 181.4C421.68 185.6 428.98 190.9 433.38 197.3C437.78 203.7 439.98 211.6 439.98 221C439.98 231.4 436.98 240.2 430.98 247.4C424.98 254.6 416.58 260.1 405.78 263.9C395.18 267.7 382.58 269.6 367.98 269.6Z" fill="black"/>
<path d="M508.357 266C491.757 266 479.557 262.2 471.757 254.6C463.957 246.8 460.057 234.5 460.057 217.7V67.3999H505.057V212.3C505.057 220.1 506.657 225.4 509.857 228.2C513.257 231 518.257 232.4 524.857 232.4H547.357V266H508.357ZM434.257 138.8V105.2H547.357V138.8H434.257Z" fill="black"/>
<path d="M555.815 266V105.2H598.415L599.915 152L596.615 151.1C599.215 134.9 603.815 123.2 610.415 116C617.015 108.8 626.115 105.2 637.715 105.2H652.415V142.4H637.715C629.315 142.4 622.415 143.5 617.015 145.7C611.615 147.9 607.515 151.4 604.715 156.2C602.115 161 600.815 167.5 600.815 175.7V266H555.815Z" fill="black"/>
<path d="M637.443 266V220.1H686.343V266H637.443Z" fill="#5C9FF8"/>
</svg>
